<?xml version="1.0" encoding="UTF-8" standalone="no"?>
<!DOCTYPE svg PUBLIC "-//W3C//DTD SVG 1.1//EN" "http://www.w3.org/Graphics/SVG/1.1/DTD/svg11.dtd">
<svg width="100%" height="100%" viewBox="0 0 1004 1123" version="1.1" xmlns="http://www.w3.org/2000/svg" xmlns:xlink="http://www.w3.org/1999/xlink" xml:space="preserve" xmlns:serif="http://www.serif.com/" style="fill-rule:evenodd;clip-rule:evenodd;stroke-linecap:round;stroke-linejoin:round;stroke-miterlimit:1.5;">
    <g transform="matrix(1,0,0,1,0,-1653)">
        <g id="Infotronics-Icon" transform="matrix(0.404762,0,0,0.319865,0,1653.543307)">
            <rect x="0" y="0" width="2480.315" height="3507.874" style="fill:none;"/>
            <g transform="matrix(2.470588,0,0,3.126316,-2029.789684,-3522.160356)">
                <g transform="matrix(1,0,0,1,-275.979128,-545.08304)">
                    <g transform="matrix(1,0,0,1,-83.516549,337.528114)">
                        <path d="M1252.748,1880.514L1419.781,1976.95L1586.814,1880.514L1419.781,1784.077L1252.748,1880.514Z" style="fill:url(#_Linear1);stroke:white;stroke-width:4.17px;"/>
                    </g>
                    <path d="M1169.232,1928.732L1169.232,2121.605L1336.265,2218.042L1336.265,2025.169L1169.232,1928.732Z" style="fill:rgb(241,91,102);stroke:white;stroke-width:4.17px;"/>
                    <g transform="matrix(1,0,0,1,0,289.309812)">
                        <path d="M1169.232,1928.732L1169.232,2314.478L1336.265,2410.915L1336.265,2025.169L1169.232,1928.732Z" style="fill:rgb(241,91,102);stroke:white;stroke-width:4.17px;"/>
                    </g>
                    <g transform="matrix(1,0,0,1,-83.516549,48.218302)">
                        <path d="M1252.748,1880.514L1419.781,1976.95L1586.814,1880.514L1419.781,1784.077L1252.748,1880.514Z" style="fill:url(#_Linear2);stroke:white;stroke-width:4.17px;"/>
                    </g>
                    <g transform="matrix(1,0,0,1,-167.033098,-192.873208)">
                        <path d="M1503.298,2218.042L1503.298,2410.915L1670.331,2314.478L1670.331,2121.605L1503.298,2218.042Z" style="fill:rgb(140,45,97);stroke:white;stroke-width:4.17px;"/>
                    </g>
                    <g transform="matrix(1,0,0,1,-167.033098,96.436604)">
                        <path d="M1503.298,2218.042L1503.298,2603.788L1670.331,2507.352L1670.331,2121.605L1503.298,2218.042Z" style="fill:rgb(140,45,97);stroke:white;stroke-width:4.17px;"/>
                    </g>
                </g>
                <g transform="matrix(1,0,0,1,-334.066196,-578.619624)">
                    <g transform="matrix(1,0,0,1,167.033098,-96.436604)">
                        <path d="M1920.881,1976.95L1753.848,1880.514L1252.748,2169.824L1419.781,2266.26" style="fill:url(#_Linear3);stroke:white;stroke-width:4.17px;"/>
                    </g>
                    <g transform="matrix(1,0,0,1,167.033098,-96.436604)">
                        <path d="M1253.198,2170.083L1252.748,2362.697L1419.781,2459.133L1419.781,2266.26L1253.198,2170.083Z" style="fill:rgb(241,91,102);stroke:white;stroke-width:4.17px;"/>
                    </g>
                    <g transform="matrix(1,0,0,1,167.033098,-96.436604)">
                        <path d="M1586.814,2844.88L1419.781,2748.443L1420.006,2266.39L1586.814,2362.697L1586.814,2844.88Z" style="fill:rgb(241,91,102);stroke:white;stroke-width:4.17px;"/>
                    </g>
                    <g transform="matrix(1,0,0,1,167.033098,-96.436604)">
                        <path d="M1586.814,2844.88L1753.848,2748.443L1753.848,2266.26L1920.881,2169.824L1920.881,1976.95L1419.781,2266.26L1419.781,2459.133L1586.814,2362.697L1586.814,2844.88Z" style="fill:rgb(140,45,97);stroke:white;stroke-width:4.17px;"/>
                    </g>
                </g>
            </g>
        </g>
    </g>
    <defs>
        <linearGradient id="_Linear1" x1="0" y1="0" x2="1" y2="0" gradientUnits="userSpaceOnUse" gradientTransform="matrix(334.066196,0,-0,867.929436,1252.748234,1880.513779)"><stop offset="0" style="stop-color:rgb(241,91,102);stop-opacity:1"/><stop offset="1" style="stop-color:rgb(140,45,97);stop-opacity:1"/></linearGradient>
        <linearGradient id="_Linear2" x1="0" y1="0" x2="1" y2="0" gradientUnits="userSpaceOnUse" gradientTransform="matrix(333.84126,-0.129867,0.337404,867.345036,1252.97317,1880.643646)"><stop offset="0" style="stop-color:rgb(241,91,102);stop-opacity:1"/><stop offset="1" style="stop-color:rgb(140,45,97);stop-opacity:1"/></linearGradient>
        <linearGradient id="_Linear3" x1="0" y1="0" x2="1" y2="0" gradientUnits="userSpaceOnUse" gradientTransform="matrix(667.68252,-192.873208,278.388497,963.716706,1253.198106,2170.083325)"><stop offset="0" style="stop-color:rgb(241,91,102);stop-opacity:1"/><stop offset="1" style="stop-color:rgb(140,45,97);stop-opacity:1"/></linearGradient>
    </defs>
</svg>
