<?xml version="1.0" encoding="UTF-8" standalone="no"?>
<!DOCTYPE svg PUBLIC "-//W3C//DTD SVG 1.1//EN" "http://www.w3.org/Graphics/SVG/1.1/DTD/svg11.dtd">
<svg width="100%" height="100%" viewBox="0 0 2705 1545" version="1.1" xmlns="http://www.w3.org/2000/svg" xmlns:xlink="http://www.w3.org/1999/xlink" xml:space="preserve" xmlns:serif="http://www.serif.com/" style="fill-rule:evenodd;clip-rule:evenodd;stroke-linecap:round;stroke-linejoin:round;stroke-miterlimit:1.5;">
    <g id="Infotronics-Logo" transform="matrix(1.090344,0,0,0.440289,0,0)">
        <rect x="0" y="0" width="2480.315" height="3507.874" style="fill:none;"/>
        <g transform="matrix(4.701386,0,0,11.642637,-3687.148964,-12184.194563)">
            <g transform="matrix(65.02635,0,0,65.02635,807.310268,1314.17905)">
                <path d="M0.083,-0.721C0.083,-0.727 0.084,-0.732 0.088,-0.736C0.092,-0.74 0.097,-0.743 0.104,-0.743L0.252,-0.743C0.257,-0.743 0.262,-0.741 0.268,-0.737C0.273,-0.733 0.276,-0.727 0.276,-0.721L0.276,-0.022C0.276,-0.007 0.268,-0 0.252,-0L0.104,-0C0.09,-0 0.083,-0.007 0.083,-0.022L0.083,-0.721Z" style="fill:rgb(65,65,65);fill-rule:nonzero;"/>
            </g>
            <g transform="matrix(65.02635,0,0,65.02635,830.492162,1314.17905)">
                <path d="M0.083,-0.721C0.083,-0.727 0.084,-0.732 0.088,-0.736C0.092,-0.74 0.097,-0.743 0.104,-0.743L0.268,-0.743C0.273,-0.743 0.278,-0.741 0.283,-0.739C0.288,-0.737 0.292,-0.733 0.295,-0.727C0.338,-0.659 0.38,-0.591 0.421,-0.525C0.463,-0.459 0.505,-0.391 0.548,-0.323L0.548,-0.724C0.549,-0.73 0.552,-0.734 0.556,-0.738C0.56,-0.741 0.565,-0.743 0.57,-0.743L0.713,-0.743C0.72,-0.743 0.725,-0.741 0.73,-0.737C0.735,-0.733 0.737,-0.728 0.737,-0.721L0.737,-0.019C0.737,-0.013 0.735,-0.008 0.731,-0.005C0.727,-0.002 0.721,-0 0.715,-0L0.555,-0C0.551,-0 0.547,-0.002 0.543,-0.005C0.54,-0.008 0.537,-0.012 0.533,-0.017C0.489,-0.09 0.445,-0.162 0.402,-0.234C0.358,-0.306 0.314,-0.378 0.27,-0.452L0.27,-0.022C0.27,-0.015 0.268,-0.009 0.265,-0.005C0.261,-0.002 0.255,-0 0.246,-0L0.104,-0C0.097,-0 0.091,-0.002 0.088,-0.006C0.084,-0.01 0.083,-0.015 0.083,-0.022L0.083,-0.721Z" style="fill:rgb(65,65,65);fill-rule:nonzero;"/>
            </g>
            <g transform="matrix(65.02635,0,0,65.02635,883.781257,1314.17905)">
                <path d="M0.085,-0.72C0.085,-0.727 0.086,-0.732 0.09,-0.736C0.094,-0.74 0.099,-0.742 0.104,-0.743L0.583,-0.743C0.59,-0.743 0.596,-0.74 0.6,-0.736C0.604,-0.732 0.606,-0.726 0.606,-0.719L0.606,-0.595C0.606,-0.589 0.604,-0.583 0.6,-0.578C0.596,-0.573 0.59,-0.571 0.582,-0.571L0.278,-0.571L0.278,-0.416L0.503,-0.416C0.509,-0.416 0.514,-0.414 0.518,-0.411C0.523,-0.407 0.525,-0.402 0.525,-0.394L0.525,-0.275C0.525,-0.269 0.523,-0.263 0.519,-0.258C0.515,-0.253 0.51,-0.251 0.504,-0.251L0.278,-0.251L0.278,-0.022C0.278,-0.007 0.27,-0 0.255,-0L0.103,-0C0.091,-0.002 0.085,-0.009 0.085,-0.021L0.085,-0.72Z" style="fill:rgb(65,65,65);fill-rule:nonzero;"/>
            </g>
            <g transform="matrix(65.02635,0,0,65.02635,925.950845,1314.17905)">
                <path d="M0.239,-0.371C0.239,-0.343 0.244,-0.318 0.253,-0.293C0.262,-0.27 0.275,-0.249 0.292,-0.231C0.309,-0.213 0.329,-0.199 0.352,-0.189C0.375,-0.179 0.4,-0.174 0.428,-0.174C0.456,-0.174 0.481,-0.179 0.504,-0.189C0.527,-0.199 0.547,-0.213 0.564,-0.231C0.581,-0.249 0.594,-0.27 0.604,-0.293C0.613,-0.318 0.618,-0.343 0.618,-0.371C0.618,-0.398 0.613,-0.424 0.604,-0.448C0.594,-0.472 0.581,-0.494 0.564,-0.512C0.547,-0.529 0.527,-0.544 0.504,-0.554C0.481,-0.564 0.456,-0.57 0.428,-0.57C0.4,-0.57 0.375,-0.564 0.352,-0.554C0.329,-0.544 0.309,-0.529 0.292,-0.512C0.275,-0.494 0.262,-0.472 0.253,-0.448C0.244,-0.424 0.239,-0.398 0.239,-0.371ZM0.046,-0.37C0.046,-0.406 0.05,-0.44 0.06,-0.472C0.068,-0.505 0.081,-0.535 0.098,-0.564C0.115,-0.592 0.135,-0.618 0.158,-0.641C0.181,-0.665 0.207,-0.685 0.235,-0.701C0.263,-0.718 0.294,-0.731 0.326,-0.74C0.359,-0.749 0.393,-0.754 0.428,-0.754C0.463,-0.754 0.497,-0.749 0.529,-0.74C0.562,-0.731 0.593,-0.718 0.621,-0.701C0.649,-0.685 0.675,-0.665 0.699,-0.641C0.722,-0.618 0.742,-0.592 0.758,-0.564C0.775,-0.535 0.788,-0.505 0.797,-0.472C0.806,-0.44 0.81,-0.406 0.81,-0.37C0.81,-0.335 0.806,-0.301 0.797,-0.269C0.788,-0.236 0.775,-0.206 0.758,-0.178C0.742,-0.15 0.722,-0.124 0.699,-0.101C0.675,-0.078 0.649,-0.058 0.621,-0.041C0.593,-0.024 0.562,-0.012 0.529,-0.003C0.497,0.006 0.463,0.011 0.428,0.011C0.393,0.011 0.359,0.006 0.326,-0.003C0.294,-0.012 0.263,-0.024 0.235,-0.041C0.207,-0.058 0.181,-0.078 0.158,-0.101C0.135,-0.124 0.115,-0.15 0.098,-0.178C0.081,-0.206 0.068,-0.236 0.06,-0.269C0.05,-0.301 0.046,-0.335 0.046,-0.37Z" style="fill:rgb(65,65,65);fill-rule:nonzero;"/>
            </g>
            <g transform="matrix(65.02635,0,0,65.02635,978.784755,1314.17905)">
                <path d="M0.04,-0.721C0.04,-0.727 0.042,-0.733 0.047,-0.737C0.051,-0.741 0.057,-0.743 0.064,-0.743L0.602,-0.743C0.608,-0.743 0.613,-0.741 0.618,-0.737C0.623,-0.733 0.625,-0.728 0.626,-0.721L0.626,-0.596C0.626,-0.59 0.624,-0.584 0.62,-0.579C0.616,-0.573 0.61,-0.571 0.602,-0.571L0.429,-0.571L0.429,-0.024C0.429,-0.018 0.427,-0.012 0.423,-0.007C0.419,-0.002 0.413,-0 0.406,-0L0.259,-0C0.253,-0 0.248,-0.002 0.243,-0.007C0.238,-0.011 0.236,-0.017 0.236,-0.024L0.236,-0.571L0.064,-0.571C0.057,-0.571 0.051,-0.573 0.047,-0.577C0.042,-0.581 0.04,-0.588 0.04,-0.596L0.04,-0.721Z" style="fill:rgb(65,65,65);fill-rule:nonzero;"/>
            </g>
            <g transform="matrix(65.02635,0,0,65.02635,1022.092304,1314.17905)">
                <path d="M0.082,-0.72C0.082,-0.727 0.083,-0.732 0.087,-0.736C0.091,-0.74 0.096,-0.743 0.104,-0.743L0.426,-0.743C0.461,-0.743 0.493,-0.736 0.523,-0.723C0.553,-0.71 0.579,-0.693 0.602,-0.671C0.624,-0.649 0.641,-0.623 0.654,-0.594C0.667,-0.564 0.674,-0.533 0.673,-0.499C0.674,-0.477 0.67,-0.455 0.664,-0.435C0.658,-0.414 0.65,-0.395 0.639,-0.377C0.628,-0.359 0.614,-0.343 0.599,-0.329C0.584,-0.314 0.568,-0.302 0.549,-0.291L0.678,-0.05C0.68,-0.045 0.683,-0.039 0.687,-0.033C0.691,-0.027 0.693,-0.021 0.693,-0.017C0.693,-0.011 0.691,-0.007 0.687,-0.004C0.684,-0.001 0.679,-0 0.673,-0L0.502,-0C0.496,-0 0.491,-0.002 0.486,-0.005C0.482,-0.008 0.479,-0.013 0.478,-0.018L0.356,-0.247L0.275,-0.247L0.275,-0.022C0.275,-0.007 0.267,-0 0.252,-0L0.104,-0C0.097,-0 0.092,-0.002 0.088,-0.005C0.084,-0.009 0.082,-0.014 0.082,-0.022L0.082,-0.72ZM0.473,-0.497C0.473,-0.507 0.471,-0.517 0.468,-0.527C0.464,-0.537 0.459,-0.547 0.452,-0.555C0.445,-0.563 0.437,-0.57 0.428,-0.576C0.419,-0.582 0.408,-0.585 0.397,-0.587C0.388,-0.588 0.379,-0.588 0.371,-0.589C0.363,-0.589 0.354,-0.59 0.344,-0.59L0.275,-0.59L0.275,-0.406L0.367,-0.406C0.373,-0.406 0.378,-0.406 0.383,-0.407C0.388,-0.407 0.393,-0.407 0.399,-0.408C0.41,-0.409 0.421,-0.413 0.43,-0.418C0.439,-0.424 0.447,-0.431 0.454,-0.439C0.46,-0.447 0.465,-0.456 0.468,-0.466C0.471,-0.476 0.473,-0.487 0.473,-0.497Z" style="fill:rgb(65,65,65);fill-rule:nonzero;"/>
            </g>
            <g transform="matrix(65.02635,0,0,65.02635,1067.838342,1314.17905)">
                <path d="M0.239,-0.371C0.239,-0.343 0.244,-0.318 0.253,-0.293C0.262,-0.27 0.275,-0.249 0.292,-0.231C0.309,-0.213 0.329,-0.199 0.352,-0.189C0.375,-0.179 0.4,-0.174 0.428,-0.174C0.456,-0.174 0.481,-0.179 0.504,-0.189C0.527,-0.199 0.547,-0.213 0.564,-0.231C0.581,-0.249 0.594,-0.27 0.604,-0.293C0.613,-0.318 0.618,-0.343 0.618,-0.371C0.618,-0.398 0.613,-0.424 0.604,-0.448C0.594,-0.472 0.581,-0.494 0.564,-0.512C0.547,-0.529 0.527,-0.544 0.504,-0.554C0.481,-0.564 0.456,-0.57 0.428,-0.57C0.4,-0.57 0.375,-0.564 0.352,-0.554C0.329,-0.544 0.309,-0.529 0.292,-0.512C0.275,-0.494 0.262,-0.472 0.253,-0.448C0.244,-0.424 0.239,-0.398 0.239,-0.371ZM0.046,-0.37C0.046,-0.406 0.05,-0.44 0.06,-0.472C0.068,-0.505 0.081,-0.535 0.098,-0.564C0.115,-0.592 0.135,-0.618 0.158,-0.641C0.181,-0.665 0.207,-0.685 0.235,-0.701C0.263,-0.718 0.294,-0.731 0.326,-0.74C0.359,-0.749 0.393,-0.754 0.428,-0.754C0.463,-0.754 0.497,-0.749 0.529,-0.74C0.562,-0.731 0.593,-0.718 0.621,-0.701C0.649,-0.685 0.675,-0.665 0.699,-0.641C0.722,-0.618 0.742,-0.592 0.758,-0.564C0.775,-0.535 0.788,-0.505 0.797,-0.472C0.806,-0.44 0.81,-0.406 0.81,-0.37C0.81,-0.335 0.806,-0.301 0.797,-0.269C0.788,-0.236 0.775,-0.206 0.758,-0.178C0.742,-0.15 0.722,-0.124 0.699,-0.101C0.675,-0.078 0.649,-0.058 0.621,-0.041C0.593,-0.024 0.562,-0.012 0.529,-0.003C0.497,0.006 0.463,0.011 0.428,0.011C0.393,0.011 0.359,0.006 0.326,-0.003C0.294,-0.012 0.263,-0.024 0.235,-0.041C0.207,-0.058 0.181,-0.078 0.158,-0.101C0.135,-0.124 0.115,-0.15 0.098,-0.178C0.081,-0.206 0.068,-0.236 0.06,-0.269C0.05,-0.301 0.046,-0.335 0.046,-0.37Z" style="fill:rgb(65,65,65);fill-rule:nonzero;"/>
            </g>
            <g transform="matrix(65.02635,0,0,65.02635,1123.273305,1314.17905)">
                <path d="M0.083,-0.721C0.083,-0.727 0.084,-0.732 0.088,-0.736C0.092,-0.74 0.097,-0.743 0.104,-0.743L0.268,-0.743C0.273,-0.743 0.278,-0.741 0.283,-0.739C0.288,-0.737 0.292,-0.733 0.295,-0.727C0.338,-0.659 0.38,-0.591 0.421,-0.525C0.463,-0.459 0.505,-0.391 0.548,-0.323L0.548,-0.724C0.549,-0.73 0.552,-0.734 0.556,-0.738C0.56,-0.741 0.565,-0.743 0.57,-0.743L0.713,-0.743C0.72,-0.743 0.725,-0.741 0.73,-0.737C0.735,-0.733 0.737,-0.728 0.737,-0.721L0.737,-0.019C0.737,-0.013 0.735,-0.008 0.731,-0.005C0.727,-0.002 0.721,-0 0.715,-0L0.555,-0C0.551,-0 0.547,-0.002 0.543,-0.005C0.54,-0.008 0.537,-0.012 0.533,-0.017C0.489,-0.09 0.445,-0.162 0.402,-0.234C0.358,-0.306 0.314,-0.378 0.27,-0.452L0.27,-0.022C0.27,-0.015 0.268,-0.009 0.265,-0.005C0.261,-0.002 0.255,-0 0.246,-0L0.104,-0C0.097,-0 0.091,-0.002 0.088,-0.006C0.084,-0.01 0.083,-0.015 0.083,-0.022L0.083,-0.721Z" style="fill:rgb(65,65,65);fill-rule:nonzero;"/>
            </g>
            <g transform="matrix(65.02635,0,0,65.02635,1176.5624,1314.17905)">
                <path d="M0.083,-0.721C0.083,-0.727 0.084,-0.732 0.088,-0.736C0.092,-0.74 0.097,-0.743 0.104,-0.743L0.252,-0.743C0.257,-0.743 0.262,-0.741 0.268,-0.737C0.273,-0.733 0.276,-0.727 0.276,-0.721L0.276,-0.022C0.276,-0.007 0.268,-0 0.252,-0L0.104,-0C0.09,-0 0.083,-0.007 0.083,-0.022L0.083,-0.721Z" style="fill:rgb(65,65,65);fill-rule:nonzero;"/>
            </g>
            <g transform="matrix(65.02635,0,0,65.02635,1199.744293,1314.17905)">
                <path d="M0.647,-0.689C0.653,-0.685 0.657,-0.681 0.659,-0.675C0.662,-0.67 0.662,-0.664 0.658,-0.656L0.574,-0.536C0.57,-0.531 0.566,-0.528 0.562,-0.527C0.558,-0.526 0.552,-0.527 0.546,-0.531C0.53,-0.543 0.512,-0.553 0.492,-0.559C0.473,-0.566 0.452,-0.57 0.43,-0.57C0.403,-0.57 0.378,-0.564 0.354,-0.554C0.331,-0.544 0.312,-0.529 0.295,-0.512C0.278,-0.494 0.265,-0.472 0.256,-0.449C0.247,-0.425 0.242,-0.399 0.242,-0.371C0.242,-0.344 0.247,-0.319 0.256,-0.295C0.265,-0.271 0.278,-0.25 0.295,-0.232C0.312,-0.214 0.331,-0.2 0.354,-0.19C0.378,-0.18 0.403,-0.175 0.43,-0.175C0.452,-0.175 0.473,-0.178 0.493,-0.185C0.513,-0.192 0.531,-0.201 0.547,-0.213C0.553,-0.217 0.558,-0.219 0.562,-0.218C0.567,-0.217 0.571,-0.214 0.575,-0.209L0.66,-0.086C0.664,-0.079 0.664,-0.072 0.661,-0.068C0.659,-0.062 0.655,-0.058 0.649,-0.055C0.618,-0.034 0.584,-0.018 0.548,-0.006C0.512,0.005 0.474,0.011 0.433,0.011C0.398,0.011 0.364,0.006 0.332,-0.003C0.299,-0.012 0.269,-0.024 0.24,-0.041C0.212,-0.058 0.186,-0.078 0.163,-0.101C0.14,-0.124 0.12,-0.15 0.104,-0.178C0.087,-0.206 0.074,-0.236 0.065,-0.269C0.056,-0.301 0.052,-0.335 0.052,-0.37C0.052,-0.406 0.056,-0.44 0.065,-0.472C0.074,-0.505 0.087,-0.535 0.104,-0.564C0.12,-0.592 0.14,-0.618 0.163,-0.641C0.186,-0.665 0.212,-0.685 0.24,-0.701C0.269,-0.718 0.299,-0.731 0.332,-0.74C0.364,-0.749 0.398,-0.754 0.433,-0.754C0.474,-0.754 0.511,-0.748 0.547,-0.737C0.582,-0.726 0.616,-0.709 0.647,-0.689Z" style="fill:rgb(65,65,65);fill-rule:nonzero;"/>
            </g>
            <g transform="matrix(65.02635,0,0,65.02635,1245.555357,1314.17905)">
                <path d="M0.174,-0.24C0.18,-0.235 0.187,-0.229 0.196,-0.221C0.205,-0.213 0.215,-0.205 0.226,-0.198C0.243,-0.186 0.26,-0.177 0.277,-0.171C0.293,-0.165 0.311,-0.162 0.329,-0.162C0.346,-0.162 0.36,-0.163 0.372,-0.167C0.383,-0.171 0.392,-0.176 0.399,-0.182C0.406,-0.189 0.41,-0.196 0.413,-0.205C0.416,-0.213 0.417,-0.222 0.417,-0.231C0.417,-0.241 0.414,-0.251 0.406,-0.259C0.398,-0.267 0.388,-0.274 0.377,-0.281C0.366,-0.287 0.354,-0.292 0.342,-0.297C0.329,-0.301 0.319,-0.305 0.309,-0.308C0.27,-0.322 0.235,-0.337 0.205,-0.353C0.175,-0.369 0.149,-0.387 0.13,-0.407C0.11,-0.427 0.095,-0.449 0.085,-0.473C0.075,-0.497 0.07,-0.523 0.07,-0.552C0.07,-0.584 0.076,-0.612 0.088,-0.637C0.101,-0.662 0.119,-0.684 0.142,-0.702C0.165,-0.72 0.193,-0.734 0.226,-0.744C0.258,-0.754 0.295,-0.759 0.335,-0.759C0.365,-0.759 0.394,-0.755 0.422,-0.748C0.45,-0.741 0.478,-0.731 0.505,-0.716C0.516,-0.709 0.527,-0.702 0.537,-0.695C0.547,-0.688 0.556,-0.681 0.564,-0.674C0.571,-0.667 0.577,-0.661 0.582,-0.655C0.586,-0.649 0.589,-0.644 0.589,-0.64C0.589,-0.635 0.587,-0.631 0.585,-0.628C0.583,-0.624 0.58,-0.62 0.576,-0.615L0.499,-0.533C0.493,-0.528 0.488,-0.525 0.482,-0.525C0.477,-0.525 0.473,-0.526 0.469,-0.529C0.465,-0.532 0.461,-0.535 0.457,-0.539L0.452,-0.543C0.445,-0.549 0.438,-0.554 0.43,-0.56C0.422,-0.567 0.413,-0.572 0.404,-0.577C0.394,-0.582 0.384,-0.586 0.374,-0.589C0.364,-0.592 0.353,-0.594 0.343,-0.594C0.332,-0.594 0.321,-0.593 0.311,-0.591C0.302,-0.589 0.293,-0.586 0.286,-0.582C0.279,-0.578 0.273,-0.573 0.269,-0.566C0.264,-0.56 0.262,-0.552 0.262,-0.542C0.262,-0.533 0.264,-0.525 0.269,-0.518C0.274,-0.511 0.281,-0.505 0.29,-0.499C0.299,-0.493 0.311,-0.488 0.325,-0.483C0.339,-0.478 0.355,-0.472 0.373,-0.466C0.408,-0.454 0.441,-0.442 0.471,-0.429C0.501,-0.416 0.526,-0.401 0.548,-0.384C0.57,-0.366 0.587,-0.345 0.599,-0.321C0.611,-0.297 0.617,-0.267 0.617,-0.233C0.617,-0.196 0.61,-0.163 0.595,-0.133C0.58,-0.103 0.559,-0.077 0.533,-0.057C0.507,-0.036 0.476,-0.019 0.441,-0.008C0.405,0.004 0.367,0.009 0.327,0.009C0.288,0.009 0.251,0.003 0.213,-0.011C0.176,-0.025 0.142,-0.043 0.11,-0.066C0.097,-0.076 0.085,-0.085 0.076,-0.095C0.067,-0.104 0.053,-0.119 0.053,-0.119C0.053,-0.119 0.052,-0.12 0.052,-0.12C0.052,-0.12 0.051,-0.12 0.051,-0.12C0.051,-0.121 0.05,-0.122 0.05,-0.122C0.05,-0.122 0.049,-0.122 0.049,-0.122C0.041,-0.131 0.037,-0.138 0.037,-0.143C0.037,-0.148 0.041,-0.154 0.049,-0.162L0.136,-0.244C0.142,-0.249 0.148,-0.252 0.152,-0.252C0.155,-0.252 0.159,-0.251 0.162,-0.248C0.165,-0.247 0.169,-0.244 0.174,-0.24Z" style="fill:rgb(65,65,65);fill-rule:nonzero;"/>
            </g>
        </g>
        <g transform="matrix(0.917142,0,0,2.271235,87.209914,-2493.331854)">
            <g transform="matrix(1,0,0,1,-275.979128,-545.08304)">
                <g transform="matrix(1,0,0,1,-83.516549,337.528114)">
                    <path d="M1252.748,1880.514L1419.781,1976.95L1586.814,1880.514L1419.781,1784.077L1252.748,1880.514Z" style="fill:url(#_Linear1);stroke:white;stroke-width:4.17px;"/>
                </g>
                <path d="M1169.232,1928.732L1169.232,2121.605L1336.265,2218.042L1336.265,2025.169L1169.232,1928.732Z" style="fill:rgb(241,91,102);stroke:white;stroke-width:4.17px;"/>
                <g transform="matrix(1,0,0,1,0,289.309812)">
                    <path d="M1169.232,1928.732L1169.232,2314.478L1336.265,2410.915L1336.265,2025.169L1169.232,1928.732Z" style="fill:rgb(241,91,102);stroke:white;stroke-width:4.17px;"/>
                </g>
                <g transform="matrix(1,0,0,1,-83.516549,48.218302)">
                    <path d="M1252.748,1880.514L1419.781,1976.95L1586.814,1880.514L1419.781,1784.077L1252.748,1880.514Z" style="fill:url(#_Linear2);stroke:white;stroke-width:4.17px;"/>
                </g>
                <g transform="matrix(1,0,0,1,-167.033098,-192.873208)">
                    <path d="M1503.298,2218.042L1503.298,2410.915L1670.331,2314.478L1670.331,2121.605L1503.298,2218.042Z" style="fill:rgb(140,45,97);stroke:white;stroke-width:4.17px;"/>
                </g>
                <g transform="matrix(1,0,0,1,-167.033098,96.436604)">
                    <path d="M1503.298,2218.042L1503.298,2603.788L1670.331,2507.352L1670.331,2121.605L1503.298,2218.042Z" style="fill:rgb(140,45,97);stroke:white;stroke-width:4.17px;"/>
                </g>
            </g>
            <g transform="matrix(1,0,0,1,-334.066196,-578.619624)">
                <g transform="matrix(1,0,0,1,167.033098,-96.436604)">
                    <path d="M1920.881,1976.95L1753.848,1880.514L1252.748,2169.824L1419.781,2266.26" style="fill:url(#_Linear3);stroke:white;stroke-width:4.17px;"/>
                </g>
                <g transform="matrix(1,0,0,1,167.033098,-96.436604)">
                    <path d="M1253.198,2170.083L1252.748,2362.697L1419.781,2459.133L1419.781,2266.26L1253.198,2170.083Z" style="fill:rgb(241,91,102);stroke:white;stroke-width:4.17px;"/>
                </g>
                <g transform="matrix(1,0,0,1,167.033098,-96.436604)">
                    <path d="M1586.814,2844.88L1419.781,2748.443L1420.006,2266.39L1586.814,2362.697L1586.814,2844.88Z" style="fill:rgb(241,91,102);stroke:white;stroke-width:4.17px;"/>
                </g>
                <g transform="matrix(1,0,0,1,167.033098,-96.436604)">
                    <path d="M1586.814,2844.88L1753.848,2748.443L1753.848,2266.26L1920.881,2169.824L1920.881,1976.95L1419.781,2266.26L1419.781,2459.133L1586.814,2362.697L1586.814,2844.88Z" style="fill:rgb(140,45,97);stroke:white;stroke-width:4.17px;"/>
                </g>
            </g>
        </g>
    </g>
    <defs>
        <linearGradient id="_Linear1" x1="0" y1="0" x2="1" y2="0" gradientUnits="userSpaceOnUse" gradientTransform="matrix(334.066196,0,-0,867.929436,1252.748234,1880.513779)"><stop offset="0" style="stop-color:rgb(241,91,102);stop-opacity:1"/><stop offset="1" style="stop-color:rgb(140,45,97);stop-opacity:1"/></linearGradient>
        <linearGradient id="_Linear2" x1="0" y1="0" x2="1" y2="0" gradientUnits="userSpaceOnUse" gradientTransform="matrix(333.84126,-0.129867,0.337404,867.345036,1252.97317,1880.643646)"><stop offset="0" style="stop-color:rgb(241,91,102);stop-opacity:1"/><stop offset="1" style="stop-color:rgb(140,45,97);stop-opacity:1"/></linearGradient>
        <linearGradient id="_Linear3" x1="0" y1="0" x2="1" y2="0" gradientUnits="userSpaceOnUse" gradientTransform="matrix(667.68252,-192.873208,278.388497,963.716706,1253.198106,2170.083325)"><stop offset="0" style="stop-color:rgb(241,91,102);stop-opacity:1"/><stop offset="1" style="stop-color:rgb(140,45,97);stop-opacity:1"/></linearGradient>
    </defs>
</svg>
