<?xml version="1.0" encoding="UTF-8" standalone="no"?>
<!DOCTYPE svg PUBLIC "-//W3C//DTD SVG 1.1//EN" "http://www.w3.org/Graphics/SVG/1.1/DTD/svg11.dtd">
<svg width="100%" height="100%" viewBox="0 0 2048 2048" version="1.1" xmlns="http://www.w3.org/2000/svg" xmlns:xlink="http://www.w3.org/1999/xlink" xml:space="preserve" xmlns:serif="http://www.serif.com/" style="fill-rule:evenodd;clip-rule:evenodd;stroke-linejoin:round;stroke-miterlimit:2;">
    <rect id="CNet-Logo" serif:id="CNet Logo" x="0" y="0" width="2048" height="2048" style="fill:none;"/>
    <g id="CNet-Logo1" serif:id="CNet Logo">
        <path d="M1920,0C1990.69,0 2048,57.308 2048,128L2048,1920C2048,1990.69 1990.69,2048 1920,2048L128,2048C57.308,2048 0,1990.69 0,1920L0,128C0,57.308 57.308,0 128,0L1920,0Z" style="fill:rgb(225,2,113);"/>
        <g>
            <g transform="matrix(0.774844,0.774844,-0.855012,0.855012,1278.76,-394.85)">
                <rect x="600.826" y="447.512" width="302.463" height="994.226" style="fill:rgb(225,2,113);"/>
                <path d="M903.289,447.512L903.289,1441.74L600.826,1441.74L600.826,447.512L903.289,447.512ZM839.409,505.403L664.707,505.403L664.707,1383.85L839.409,1383.85L839.409,505.403Z" style="fill:white;"/>
            </g>
            <g transform="matrix(1.00023,-1.00023,0.747329,0.747329,-1035.13,1356.83)">
                <path d="M866.511,1312.94L593.424,1312.94L593.424,998.493L851.55,998.493L851.55,1021.42L859.84,1021.42L859.84,1143.47L892.379,1143.47L892.379,998.493L917.206,998.493C916.212,999.203 915.293,1000 914.451,1000.89C910.237,1005.33 908.13,1012.08 908.13,1021.14L908.13,1116.56C908.13,1125.62 910.237,1132.37 914.451,1136.81C918.665,1141.25 924.779,1143.47 932.793,1143.47L973,1143.47C981.014,1143.47 987.128,1141.25 991.342,1136.81C995.556,1132.37 997.663,1125.62 997.663,1116.56L997.663,1021.14C997.663,1012.08 995.556,1005.33 991.342,1000.89C990.5,1000 989.582,999.203 988.588,998.493L1013.42,998.493L1013.42,1021.42L1021.71,1021.42L1021.71,1143.47L1054.24,1143.47L1054.24,998.493L1079.07,998.493C1078.08,999.203 1077.16,1000 1076.32,1000.89C1072.1,1005.33 1070,1012.08 1070,1021.14L1070,1116.56C1070,1125.62 1072.1,1132.37 1076.32,1136.81C1080.53,1141.25 1086.64,1143.47 1094.66,1143.47L1134.87,1143.47C1142.88,1143.47 1148.99,1141.25 1153.21,1136.81C1157.42,1132.37 1159.53,1125.62 1159.53,1116.56L1159.53,1021.14C1159.53,1012.08 1157.42,1005.33 1153.21,1000.89C1152.37,1000 1151.45,999.203 1150.45,998.493L1175.28,998.493L1175.28,1021.42L1183.57,1021.42L1183.57,1143.47L1216.11,1143.47L1216.11,998.493L1231.86,998.493L1231.86,1021.42L1240.15,1021.42L1240.15,1143.47L1272.69,1143.47L1272.69,998.493L1297.52,998.493C1296.52,999.203 1295.6,1000 1294.76,1000.89C1290.55,1005.33 1288.44,1012.08 1288.44,1021.14L1288.44,1116.56C1288.44,1125.62 1290.55,1132.37 1294.76,1136.81C1298.98,1141.25 1305.09,1143.47 1313.1,1143.47L1353.31,1143.47C1361.32,1143.47 1367.44,1141.25 1371.65,1136.81C1375.87,1132.37 1377.97,1125.62 1377.97,1116.56L1377.97,1021.14C1377.97,1012.08 1375.87,1005.33 1371.65,1000.89C1370.81,1000 1369.89,999.203 1368.9,998.493L1393.72,998.493L1393.72,1021.42L1402.01,1021.42L1402.01,1143.47L1434.55,1143.47L1434.55,998.493L1459.38,998.493C1458.39,999.203 1457.47,1000 1456.63,1000.89C1452.41,1005.33 1450.3,1012.08 1450.3,1021.14L1450.3,1116.56C1450.3,1125.62 1452.41,1132.37 1456.63,1136.81C1460.84,1141.25 1466.95,1143.47 1474.97,1143.47L1515.17,1143.47C1523.19,1143.47 1529.3,1141.25 1533.52,1136.81C1537.73,1132.37 1539.84,1125.62 1539.84,1116.56L1539.84,1021.14C1539.84,1012.08 1537.73,1005.33 1533.52,1000.89C1532.67,1000 1531.76,999.203 1530.76,998.493L1789.81,998.493L1789.81,1312.94L1524.88,1312.94C1528.33,1311.85 1531.21,1310.08 1533.52,1307.65C1537.73,1303.21 1539.84,1296.46 1539.84,1287.4L1539.84,1191.98C1539.84,1182.92 1537.73,1176.17 1533.52,1171.73C1529.3,1167.29 1523.19,1165.07 1515.17,1165.07L1474.97,1165.07C1466.95,1165.07 1460.84,1167.29 1456.63,1171.73C1452.41,1176.17 1450.3,1182.92 1450.3,1191.98L1450.3,1287.4C1450.3,1296.46 1452.41,1303.21 1456.63,1307.65C1458.93,1310.08 1461.82,1311.85 1465.27,1312.94L1434.55,1312.94L1434.55,1165.07L1393.72,1165.07L1393.72,1192.25L1402.01,1192.25L1402.01,1312.94L1377.97,1312.94L1377.97,1165.07L1337.14,1165.07L1337.14,1192.25L1345.43,1192.25L1345.43,1312.94L1306.43,1312.94C1309.88,1311.85 1312.76,1310.08 1315.07,1307.65C1319.29,1303.21 1321.39,1296.46 1321.39,1287.4L1321.39,1191.98C1321.39,1182.92 1319.29,1176.17 1315.07,1171.73C1310.86,1167.29 1304.74,1165.07 1296.73,1165.07L1256.52,1165.07C1248.51,1165.07 1242.39,1167.29 1238.18,1171.73C1233.97,1176.17 1231.86,1182.92 1231.86,1191.98L1231.86,1287.4C1231.86,1296.46 1233.97,1303.21 1238.18,1307.65C1240.49,1310.08 1243.37,1311.85 1246.82,1312.94L1216.11,1312.94L1216.11,1165.07L1175.28,1165.07L1175.28,1192.25L1183.57,1192.25L1183.57,1312.94L1144.57,1312.94C1148.02,1311.85 1150.9,1310.08 1153.21,1307.65C1157.42,1303.21 1159.53,1296.46 1159.53,1287.4L1159.53,1191.98C1159.53,1182.92 1157.42,1176.17 1153.21,1171.73C1148.99,1167.29 1142.88,1165.07 1134.87,1165.07L1094.66,1165.07C1086.64,1165.07 1080.53,1167.29 1076.32,1171.73C1072.1,1176.17 1070,1182.92 1070,1191.98L1070,1287.4C1070,1296.46 1072.1,1303.21 1076.32,1307.65C1078.62,1310.08 1081.51,1311.85 1084.96,1312.94L1054.24,1312.94L1054.24,1165.07L1013.42,1165.07L1013.42,1192.25L1021.71,1192.25L1021.71,1312.94L997.663,1312.94L997.663,1165.07L956.834,1165.07L956.834,1192.25L965.125,1192.25L965.125,1312.94L926.122,1312.94C929.573,1311.85 932.453,1310.08 934.762,1307.65C938.976,1303.21 941.083,1296.46 941.083,1287.4L941.083,1191.98C941.083,1182.92 938.976,1176.17 934.762,1171.73C930.548,1167.29 924.434,1165.07 916.42,1165.07L876.213,1165.07C868.199,1165.07 862.085,1167.29 857.871,1171.73C853.657,1176.17 851.55,1182.92 851.55,1191.98L851.55,1287.4C851.55,1296.46 853.657,1303.21 857.871,1307.65C860.18,1310.08 863.06,1311.85 866.511,1312.94ZM887.612,1287.12L908.544,1238.02L908.544,1287.12L887.612,1287.12ZM905.021,1192.25L884.089,1241.35L884.089,1192.25L905.021,1192.25ZM944.192,1116.28L965.125,1067.18L965.125,1116.28L944.192,1116.28ZM961.601,1021.42L940.669,1070.51L940.669,1021.42L961.601,1021.42ZM1106.06,1116.28L1126.99,1067.18L1126.99,1116.28L1106.06,1116.28ZM1123.47,1021.42L1102.53,1070.51L1102.53,1021.42L1123.47,1021.42ZM1324.5,1116.28L1345.43,1067.18L1345.43,1116.28L1324.5,1116.28ZM1341.91,1021.42L1320.98,1070.51L1320.98,1021.42L1341.91,1021.42ZM1486.37,1116.28L1507.3,1067.18L1507.3,1116.28L1486.37,1116.28ZM1503.78,1021.42L1482.84,1070.51L1482.84,1021.42L1503.78,1021.42ZM1486.37,1287.12L1507.3,1238.02L1507.3,1287.12L1486.37,1287.12ZM1503.78,1192.25L1482.84,1241.35L1482.84,1192.25L1503.78,1192.25ZM1267.92,1287.12L1288.85,1238.02L1288.85,1287.12L1267.92,1287.12ZM1285.33,1192.25L1264.4,1241.35L1264.4,1192.25L1285.33,1192.25ZM1106.06,1287.12L1126.99,1238.02L1126.99,1287.12L1106.06,1287.12ZM1123.47,1192.25L1102.53,1241.35L1102.53,1192.25L1123.47,1192.25Z" style="fill:rgb(170,1,89);"/>
            </g>
            <g transform="matrix(-1.8524,-1.8524,1.8524,-1.8524,354.58,2825.28)">
                <path d="M348.182,278.969L364.655,278.969C370.178,278.969 374.655,283.446 374.655,288.969L374.655,465.186C374.655,470.709 370.178,475.186 364.655,475.186L246.963,475.186C241.44,475.186 236.963,470.709 236.963,465.186L236.963,288.969C236.963,283.446 241.44,278.969 246.963,278.969L263.436,278.969L263.436,319.506C263.436,320.159 263.695,320.785 264.157,321.247C264.619,321.709 265.245,321.968 265.898,321.968L265.9,321.968C266.553,321.968 267.179,321.709 267.641,321.247C268.103,320.785 268.362,320.159 268.362,319.506L268.362,278.969L276.739,278.969L276.739,319.506C276.739,320.159 276.998,320.785 277.46,321.247C277.922,321.709 278.548,321.968 279.201,321.968L279.203,321.968C279.856,321.968 280.482,321.709 280.944,321.247C281.406,320.785 281.665,320.159 281.665,319.506L281.665,278.969L290.042,278.969L290.042,319.506C290.042,320.159 290.302,320.785 290.763,321.247C291.225,321.709 291.851,321.968 292.504,321.968L292.507,321.968C293.159,321.968 293.786,321.709 294.247,321.247C294.709,320.785 294.969,320.159 294.969,319.506L294.969,278.969L303.346,278.969L303.346,319.506C303.346,320.159 303.605,320.785 304.067,321.247C304.528,321.709 305.155,321.968 305.808,321.968L305.81,321.968C306.463,321.968 307.089,321.709 307.551,321.247C308.012,320.785 308.272,320.159 308.272,319.506L308.272,278.969L316.649,278.969L316.649,319.506C316.649,320.159 316.908,320.785 317.37,321.247C317.832,321.709 318.458,321.968 319.111,321.968L319.113,321.968C319.766,321.968 320.392,321.709 320.854,321.247C321.316,320.785 321.575,320.159 321.575,319.506L321.575,278.969L329.952,278.969L329.952,319.506C329.952,320.159 330.212,320.785 330.673,321.247C331.135,321.709 331.761,321.968 332.414,321.968L332.416,321.968C333.069,321.968 333.696,321.709 334.157,321.247C334.619,320.785 334.878,320.159 334.878,319.506L334.878,278.969L343.255,278.969L343.255,319.506C343.255,320.159 343.515,320.785 343.977,321.247C344.438,321.709 345.065,321.968 345.717,321.968L345.72,321.968C346.373,321.968 346.999,321.709 347.461,321.247C347.922,320.785 348.182,320.159 348.182,319.506L348.182,278.969ZM360.013,356.602C360.013,352.303 356.528,348.818 352.229,348.818L259.388,348.818C255.089,348.818 251.604,352.303 251.604,356.602L251.604,356.604C251.604,360.903 255.089,364.388 259.388,364.388L352.229,364.388C356.528,364.388 360.013,360.903 360.013,356.604L360.013,356.602ZM261.832,391.899C259.18,391.899 256.637,392.953 254.761,394.828C252.886,396.703 251.832,399.247 251.832,401.899L251.832,450.556C251.832,453.208 252.886,455.752 254.761,457.627C256.637,459.502 259.18,460.556 261.832,460.556L349.785,460.556C352.437,460.556 354.981,459.502 356.856,457.627C358.731,455.752 359.785,453.208 359.785,450.556L359.785,401.899C359.785,399.247 358.731,396.703 356.856,394.828C354.981,392.953 352.437,391.899 349.785,391.899L261.832,391.899Z" style="fill:white;"/>
            </g>
            <g transform="matrix(1.8524,1.8524,-1.8524,1.8524,1693.42,-777.276)">
                <path d="M348.182,278.969L364.655,278.969C370.178,278.969 374.655,283.446 374.655,288.969L374.655,465.186C374.655,470.709 370.178,475.186 364.655,475.186L246.963,475.186C241.44,475.186 236.963,470.709 236.963,465.186L236.963,288.969C236.963,283.446 241.44,278.969 246.963,278.969L263.436,278.969L263.436,319.506C263.436,320.159 263.695,320.785 264.157,321.247C264.619,321.709 265.245,321.968 265.898,321.968L265.9,321.968C266.553,321.968 267.179,321.709 267.641,321.247C268.103,320.785 268.362,320.159 268.362,319.506L268.362,278.969L276.739,278.969L276.739,319.506C276.739,320.159 276.998,320.785 277.46,321.247C277.922,321.709 278.548,321.968 279.201,321.968L279.203,321.968C279.856,321.968 280.482,321.709 280.944,321.247C281.406,320.785 281.665,320.159 281.665,319.506L281.665,278.969L290.042,278.969L290.042,319.506C290.042,320.159 290.302,320.785 290.763,321.247C291.225,321.709 291.851,321.968 292.504,321.968L292.507,321.968C293.159,321.968 293.786,321.709 294.247,321.247C294.709,320.785 294.969,320.159 294.969,319.506L294.969,278.969L303.346,278.969L303.346,319.506C303.346,320.159 303.605,320.785 304.067,321.247C304.528,321.709 305.155,321.968 305.808,321.968L305.81,321.968C306.463,321.968 307.089,321.709 307.551,321.247C308.012,320.785 308.272,320.159 308.272,319.506L308.272,278.969L316.649,278.969L316.649,319.506C316.649,320.159 316.908,320.785 317.37,321.247C317.832,321.709 318.458,321.968 319.111,321.968L319.113,321.968C319.766,321.968 320.392,321.709 320.854,321.247C321.316,320.785 321.575,320.159 321.575,319.506L321.575,278.969L329.952,278.969L329.952,319.506C329.952,320.159 330.212,320.785 330.673,321.247C331.135,321.709 331.761,321.968 332.414,321.968L332.416,321.968C333.069,321.968 333.696,321.709 334.157,321.247C334.619,320.785 334.878,320.159 334.878,319.506L334.878,278.969L343.255,278.969L343.255,319.506C343.255,320.159 343.515,320.785 343.977,321.247C344.438,321.709 345.065,321.968 345.717,321.968L345.72,321.968C346.373,321.968 346.999,321.709 347.461,321.247C347.922,320.785 348.182,320.159 348.182,319.506L348.182,278.969ZM360.013,356.602C360.013,352.303 356.528,348.818 352.229,348.818L259.388,348.818C255.089,348.818 251.604,352.303 251.604,356.602L251.604,356.604C251.604,360.903 255.089,364.388 259.388,364.388L352.229,364.388C356.528,364.388 360.013,360.903 360.013,356.604L360.013,356.602ZM261.832,391.899C259.18,391.899 256.637,392.953 254.761,394.828C252.886,396.703 251.832,399.247 251.832,401.899L251.832,450.556C251.832,453.208 252.886,455.752 254.761,457.627C256.637,459.502 259.18,460.556 261.832,460.556L349.785,460.556C352.437,460.556 354.981,459.502 356.856,457.627C358.731,455.752 359.785,453.208 359.785,450.556L359.785,401.899C359.785,399.247 358.731,396.703 356.856,394.828C354.981,392.953 352.437,391.899 349.785,391.899L261.832,391.899Z" style="fill:white;"/>
            </g>
            <g transform="matrix(1,0,0,1,-77.2933,-9.76398)">
                <path d="M800.946,1059.24C799.516,1060.67 797.366,1061.1 795.498,1060.32C793.629,1059.55 792.411,1057.72 792.411,1055.7C792.397,920.892 792.397,578.115 792.397,578.115C754.294,564.861 726.917,528.611 726.917,486.017C726.917,432.217 770.596,388.537 824.397,388.537C878.198,388.537 921.877,432.217 921.877,486.017C921.877,528.611 894.5,564.861 856.397,578.115L856.397,1001.72C856.397,1003.04 855.87,1004.31 854.933,1005.25C847.79,1012.39 816.333,1043.85 800.946,1059.24ZM1010.92,849.263C1009.49,850.693 1007.34,851.12 1005.47,850.347C1003.6,849.573 1002.39,847.749 1002.39,845.727C1002.38,655.199 1002.38,360.843 1002.38,360.843C964.282,347.589 936.904,311.339 936.904,268.745C936.904,214.944 980.584,171.265 1034.38,171.265C1088.19,171.265 1131.87,214.944 1131.87,268.745C1131.87,311.339 1104.49,347.589 1066.38,360.843L1066.38,791.728C1066.38,793.054 1065.86,794.326 1064.92,795.264C1057.78,802.407 1026.31,833.873 1010.92,849.263ZM1219.31,640.874C1217.88,642.304 1215.73,642.732 1213.86,641.958C1211.99,641.184 1210.78,639.361 1210.78,637.338C1210.77,590.868 1210.77,536.98 1210.77,536.98C1172.67,523.726 1145.29,487.476 1145.29,444.882C1145.29,391.082 1188.97,347.402 1242.77,347.402C1296.58,347.402 1340.25,391.082 1340.25,444.882C1340.25,487.476 1312.88,523.726 1274.77,536.98L1274.77,583.339C1274.77,584.665 1274.25,585.937 1273.31,586.875C1266.17,594.018 1234.7,625.484 1219.31,640.874ZM1242.77,478.363C1261.25,478.363 1276.25,463.361 1276.25,444.882C1276.25,426.404 1261.25,411.402 1242.77,411.402C1224.3,411.402 1209.29,426.404 1209.29,444.882C1209.29,463.361 1224.3,478.363 1242.77,478.363ZM824.397,519.498C842.875,519.498 857.877,504.496 857.877,486.017C857.877,467.539 842.875,452.537 824.397,452.537C805.919,452.537 790.917,467.539 790.917,486.017C790.917,504.496 805.919,519.498 824.397,519.498ZM1034.38,302.226C1052.86,302.226 1067.87,287.224 1067.87,268.745C1067.87,250.267 1052.86,235.265 1034.38,235.265C1015.91,235.265 1000.9,250.267 1000.9,268.745C1000.9,287.224 1015.91,302.226 1034.38,302.226Z" style="fill:white;"/>
            </g>
        </g>
    </g>
</svg>
