<?xml version="1.0" encoding="UTF-8" standalone="no"?>
<!DOCTYPE svg PUBLIC "-//W3C//DTD SVG 1.1//EN" "http://www.w3.org/Graphics/SVG/1.1/DTD/svg11.dtd">
<svg width="100%" height="100%" viewBox="0 0 2048 2048" version="1.1" xmlns="http://www.w3.org/2000/svg" xmlns:xlink="http://www.w3.org/1999/xlink" xml:space="preserve" xmlns:serif="http://www.serif.com/" style="fill-rule:evenodd;clip-rule:evenodd;stroke-linejoin:round;stroke-miterlimit:2;">
    <rect id="Data-Engineering-Logo" serif:id="Data Engineering Logo" x="0" y="0" width="2048" height="2048" style="fill:none;"/>
    <g id="Data-Engineering-Logo1" serif:id="Data Engineering Logo">
        <path d="M1920,0C1990.69,0 2048,57.308 2048,128L2048,1920C2048,1990.69 1990.69,2048 1920,2048L128,2048C57.308,2048 0,1990.69 0,1920L0,128C0,57.308 57.308,0 128,0L1920,0Z" style="fill:rgb(225,2,113);"/>
        <g transform="matrix(1.09244,0,0,1.09244,-94.663,33.5201)">
            <g transform="matrix(0.679942,0,0,0.679942,327.74,566.273)">
                <g transform="matrix(1.47071,0,0,1.47071,-496.109,-806.788)">
                    <path d="M824.397,519.498C842.875,519.498 857.877,504.496 857.877,486.017C857.877,467.539 842.875,452.537 824.397,452.537C805.919,452.537 790.917,467.539 790.917,486.017C790.917,504.496 805.919,519.498 824.397,519.498ZM1034.38,302.226C1052.86,302.226 1067.87,287.224 1067.87,268.745C1067.87,250.267 1052.86,235.265 1034.38,235.265C1015.91,235.265 1000.9,250.267 1000.9,268.745C1000.9,287.224 1015.91,302.226 1034.38,302.226ZM1242.77,478.363C1261.25,478.363 1276.25,463.361 1276.25,444.882C1276.25,426.404 1261.25,411.402 1242.77,411.402C1224.3,411.402 1209.29,426.404 1209.29,444.882C1209.29,463.361 1224.3,478.363 1242.77,478.363Z" style="fill:rgb(170,1,89);"/>
                </g>
                <g transform="matrix(1.47071,0,0,1.47071,-496.109,-806.788)">
                    <path d="M792.399,633.862C792.397,603.201 792.397,578.115 792.397,578.115C754.294,564.861 726.917,528.611 726.917,486.017C726.917,432.217 770.596,388.537 824.397,388.537C878.198,388.537 921.877,432.217 921.877,486.017C921.877,528.611 894.5,564.861 856.397,578.115L856.397,619.133C834.233,623.316 812.855,628.251 792.399,633.862ZM1002.39,603.49C1002.38,502.254 1002.38,360.843 1002.38,360.843C964.282,347.589 936.904,311.339 936.904,268.745C936.904,214.944 980.584,171.265 1034.38,171.265C1088.19,171.265 1131.87,214.944 1131.87,268.745C1131.87,311.339 1104.49,347.589 1066.38,360.843L1066.38,603.54C1055.55,603.189 1044.61,603.01 1033.59,603.01C1023.1,603.01 1012.7,603.172 1002.39,603.49ZM1210.78,619.133C1210.77,578.736 1210.77,536.98 1210.77,536.98C1172.67,523.726 1145.29,487.476 1145.29,444.882C1145.29,391.082 1188.97,347.402 1242.77,347.402C1296.58,347.402 1340.25,391.082 1340.25,444.882C1340.25,487.476 1312.88,523.726 1274.77,536.98L1274.77,633.863C1254.32,628.252 1232.94,623.317 1210.78,619.133ZM1242.77,478.363C1261.25,478.363 1276.25,463.361 1276.25,444.882C1276.25,426.404 1261.25,411.402 1242.77,411.402C1224.3,411.402 1209.29,426.404 1209.29,444.882C1209.29,463.361 1224.3,478.363 1242.77,478.363ZM1034.38,302.226C1052.86,302.226 1067.87,287.224 1067.87,268.745C1067.87,250.267 1052.86,235.265 1034.38,235.265C1015.91,235.265 1000.9,250.267 1000.9,268.745C1000.9,287.224 1015.91,302.226 1034.38,302.226ZM824.397,519.498C842.875,519.498 857.877,504.496 857.877,486.017C857.877,467.539 842.875,452.537 824.397,452.537C805.919,452.537 790.917,467.539 790.917,486.017C790.917,504.496 805.919,519.498 824.397,519.498Z" style="fill:white;"/>
                </g>
            </g>
            <g transform="matrix(4.122,0,0,4.122,496.178,610.347)">
                <path d="M128,10C177.7,10 231.3,25 231.3,57.9L231.3,198.1C231.3,231 177.7,246 128,246C78.3,246 24.8,231 24.8,198L24.8,57.9C24.8,25 78.3,10 128,10ZM128,91.1C176.9,91.1 216.5,76.2 216.5,57.9C216.5,39.6 176.9,24.7 128,24.7C79.1,24.7 39.5,39.5 39.5,57.9C39.5,76.2 79.1,91.1 128,91.1ZM216.499,109.984C216.5,109.923 216.5,109.861 216.5,109.8L216.5,84.3C197.2,99 161.7,105.9 128,105.9C94.3,105.9 58.8,99 39.5,84.2L39.5,109.8C39.5,109.861 39.5,109.923 39.501,109.984L39.5,109.984L39.5,198.1C39.5,216.4 79.1,231.3 128,231.3C176.9,231.3 216.5,216.4 216.5,198.1L216.5,109.984L216.499,109.984Z" style="fill:white;"/>
                <path d="M216.5,126.3C201.3,142 164.5,150.2 128,150.2C91.5,150.2 54.7,142 39.5,126.3L39.5,154C39.5,172.2 79.1,187 128,187C176.9,187 216.5,172.2 216.5,154L216.5,126.3ZM187,157.5C187,153.4 190.3,150.1 194.4,150.1C198.5,150.1 201.8,153.4 201.8,157.5C201.8,161.6 198.5,164.9 194.4,164.9C190.3,164.9 187,161.6 187,157.5ZM216.5,198.1L216.5,170.5C201.3,186.2 164.5,194.4 128,194.4C91.5,194.4 54.7,186.2 39.5,170.5L39.5,198.1C39.5,216.4 79.1,231.3 128,231.3C176.9,231.3 216.5,216.4 216.5,198.1ZM187,201.8C187,197.7 190.3,194.4 194.4,194.4C198.5,194.4 201.8,197.7 201.8,201.8C201.8,205.9 198.5,209.2 194.4,209.2C190.3,209.1 187,205.8 187,201.8ZM216.5,84.3C197.2,99 161.7,105.9 128,105.9C94.3,105.9 58.8,99 39.5,84.2L39.5,109.8C39.5,128 79.1,142.8 128,142.8C176.9,142.8 216.5,128 216.5,109.8L216.5,84.3ZM187,113.3C187,109.2 190.3,105.9 194.4,105.9C198.5,105.9 201.8,109.2 201.8,113.3C201.8,117.4 198.5,120.7 194.4,120.7C190.3,120.6 187,117.3 187,113.3ZM128,91.1C176.9,91.1 216.5,76.2 216.5,57.9C216.5,39.6 176.9,24.7 128,24.7C79.1,24.7 39.5,39.5 39.5,57.9C39.5,76.2 79.1,91.1 128,91.1Z" style="fill:rgb(170,1,89);"/>
            </g>
        </g>
    </g>
</svg>
