<?xml version="1.0" encoding="UTF-8" standalone="no"?>
<!DOCTYPE svg PUBLIC "-//W3C//DTD SVG 1.1//EN" "http://www.w3.org/Graphics/SVG/1.1/DTD/svg11.dtd">
<svg width="100%" height="100%" viewBox="0 0 2048 2048" version="1.1" xmlns="http://www.w3.org/2000/svg" xmlns:xlink="http://www.w3.org/1999/xlink" xml:space="preserve" xmlns:serif="http://www.serif.com/" style="fill-rule:evenodd;clip-rule:evenodd;stroke-linejoin:round;stroke-miterlimit:2;">
    <rect id="OT-Security-Logo" serif:id="OT-Security Logo" x="0" y="0" width="2048" height="2048" style="fill:none;"/>
    <g id="OT-Security-Logo1" serif:id="OT-Security Logo">
        <path d="M1920,0C1990.69,0 2048,57.308 2048,128L2048,1920C2048,1990.69 1990.69,2048 1920,2048L128,2048C57.308,2048 0,1990.69 0,1920L0,128C0,57.308 57.308,0 128,0L1920,0Z" style="fill:rgb(225,2,113);"/>
        <g transform="matrix(0.679942,0,0,0.679942,327.74,566.273)">
            <g transform="matrix(1.47071,0,0,1.47071,-496.109,-806.788)">
                <path d="M824.397,519.498C842.875,519.498 857.877,504.496 857.877,486.017C857.877,467.539 842.875,452.537 824.397,452.537C805.919,452.537 790.917,467.539 790.917,486.017C790.917,504.496 805.919,519.498 824.397,519.498ZM1034.38,302.226C1052.86,302.226 1067.87,287.224 1067.87,268.745C1067.87,250.267 1052.86,235.265 1034.38,235.265C1015.91,235.265 1000.9,250.267 1000.9,268.745C1000.9,287.224 1015.91,302.226 1034.38,302.226ZM1242.77,478.363C1261.25,478.363 1276.25,463.361 1276.25,444.882C1276.25,426.404 1261.25,411.402 1242.77,411.402C1224.3,411.402 1209.29,426.404 1209.29,444.882C1209.29,463.361 1224.3,478.363 1242.77,478.363Z" style="fill:rgb(170,1,89);"/>
            </g>
            <g>
                <g transform="matrix(1.47071,0,0,1.47071,-496.109,-806.788)">
                    <path d="M798.068,704.787C796.83,705.352 795.389,705.249 794.245,704.513C793.1,703.777 792.408,702.51 792.408,701.149C792.397,651.995 792.397,578.115 792.397,578.115C754.294,564.861 726.917,528.611 726.917,486.017C726.917,432.217 770.596,388.537 824.397,388.537C878.198,388.537 921.877,432.217 921.877,486.017C921.877,528.611 894.5,564.861 856.397,578.115L856.397,673.464C856.397,674.942 855.582,676.299 854.278,676.994C836.859,686.263 818.071,695.638 798.068,704.787ZM1007.01,587.506C1005.85,587.687 1004.68,587.354 1003.79,586.594C1002.9,585.834 1002.39,584.724 1002.39,583.555C1002.38,502.95 1002.38,360.843 1002.38,360.843C964.282,347.589 936.904,311.339 936.904,268.745C936.904,214.944 980.584,171.265 1034.38,171.265C1088.19,171.265 1131.87,214.944 1131.87,268.745C1131.87,311.339 1104.49,347.589 1066.38,360.843L1066.38,584.261C1066.38,585.573 1065.74,586.802 1064.66,587.549C1063.58,588.296 1062.21,588.467 1060.98,588.005C1054.39,586.8 1043.43,584.976 1037.55,584.006C1034.89,583.569 1032.18,583.558 1029.53,583.975C1023.75,584.881 1013.11,586.55 1007.01,587.506ZM1212.89,677.004C1211.59,676.309 1210.78,674.952 1210.78,673.474C1210.77,631.164 1210.77,536.98 1210.77,536.98C1172.67,523.726 1145.29,487.476 1145.29,444.882C1145.29,391.082 1188.97,347.402 1242.77,347.402C1296.58,347.402 1340.25,391.082 1340.25,444.882C1340.25,487.476 1312.88,523.726 1274.77,536.98L1274.77,701.158C1274.77,702.519 1274.08,703.787 1272.94,704.523C1271.79,705.259 1270.35,705.362 1269.11,704.797C1249.11,695.649 1230.32,686.274 1212.89,677.004ZM824.397,519.498C842.875,519.498 857.877,504.496 857.877,486.017C857.877,467.539 842.875,452.537 824.397,452.537C805.919,452.537 790.917,467.539 790.917,486.017C790.917,504.496 805.919,519.498 824.397,519.498ZM1034.38,302.226C1052.86,302.226 1067.87,287.224 1067.87,268.745C1067.87,250.267 1052.86,235.265 1034.38,235.265C1015.91,235.265 1000.9,250.267 1000.9,268.745C1000.9,287.224 1015.91,302.226 1034.38,302.226ZM1242.77,478.363C1261.25,478.363 1276.25,463.361 1276.25,444.882C1276.25,426.404 1261.25,411.402 1242.77,411.402C1224.3,411.402 1209.29,426.404 1209.29,444.882C1209.29,463.361 1224.3,478.363 1242.77,478.363Z" style="fill:white;"/>
                </g>
                <g transform="matrix(2.19319,0,0,2.19319,146.722,146.722)">
                    <path d="M771.449,168.48C771.204,149.728 756.774,134.238 738.104,132.525C582.955,118.013 456.34,35.098 414.599,4.769C405.875,-1.59 394.053,-1.59 385.33,4.769C343.669,35.098 217.055,118.013 61.906,132.525C43.235,134.238 28.886,149.728 28.56,168.48C26.685,290.854 46.334,706.324 390.629,798.778C396.744,800.408 403.185,800.408 409.299,798.778C753.595,706.406 773.242,290.854 771.449,168.48Z" style="fill:rgb(170,1,89);fill-rule:nonzero;stroke:white;stroke-width:42.92px;"/>
                </g>
            </g>
            <g transform="matrix(2.19319,0,0,2.19319,146.722,146.722)">
                <path d="M331.45,89.843C336.499,108.867 331.578,130.01 316.688,144.9C306.597,154.993 293.39,160.838 279.239,161.537C277.371,171.691 272.487,181.043 265.064,188.464C255.669,197.863 243.26,203.166 230.007,203.478C228.273,207.623 225.741,211.405 222.506,214.638C215.923,221.222 207.17,224.847 197.861,224.847C188.55,224.847 179.798,221.222 173.215,214.641C166.631,208.057 163.006,199.305 163.006,189.994C163.006,180.683 166.633,171.93 173.215,165.347C174.765,163.799 176.435,162.413 178.216,161.194C177.796,158.866 177.539,156.529 177.441,154.199C237.508,136.856 290.199,112.525 331.45,89.843ZM126.153,494.93L126.153,267.656C126.153,258.347 133.727,250.773 143.036,250.773L253.126,250.773C262.435,250.773 270.009,258.347 270.009,267.656L270.009,420.088C270.009,420.446 270.225,420.769 270.556,420.907C270.887,421.044 271.268,420.968 271.521,420.715L376.007,316.231C379.299,312.941 382.562,312.25 384.722,312.25C389.925,312.25 395.192,316.346 395.192,324.178L395.192,433.456C395.192,433.814 395.408,434.137 395.739,434.274C396.07,434.412 396.451,434.336 396.705,434.082L514.558,316.231C517.848,312.941 521.113,312.25 523.271,312.25C528.474,312.25 533.742,316.346 533.742,324.178L533.742,435.009C533.742,435.367 533.958,435.69 534.289,435.828C534.62,435.965 535.001,435.889 535.254,435.635L654.661,316.231C657.951,312.941 661.216,312.25 663.374,312.25C668.579,312.25 673.846,316.346 673.848,324.178L673.848,494.8C657.644,535.975 636.616,576.49 609.239,613.323L609.239,558.55C609.239,557.14 608.679,555.788 607.682,554.791C606.685,553.794 605.333,553.234 603.923,553.234L511.172,553.234C509.761,553.234 508.409,553.794 507.412,554.791C506.415,555.788 505.855,557.14 505.855,558.55L505.855,639.62C505.855,641.03 506.415,642.383 507.412,643.38C508.409,644.377 509.761,644.937 511.172,644.937L583.264,644.937C537.977,694.758 478.422,734.978 399.964,756.412C321.527,734.978 261.978,694.758 216.691,644.937L294.144,644.937L294.144,558.55C294.144,557.14 293.584,555.788 292.587,554.791C291.59,553.794 290.238,553.234 288.828,553.234L196.076,553.234C194.666,553.234 193.314,553.794 192.317,554.791C191.32,555.788 190.76,557.14 190.76,558.55L190.76,613.383C163.389,576.573 142.36,536.083 126.153,494.93ZM451.69,639.62L451.69,558.55C451.69,557.14 451.13,555.788 450.133,554.791C449.136,553.794 447.784,553.234 446.373,553.234L353.622,553.234C352.212,553.234 350.86,553.794 349.863,554.791C348.866,555.788 348.306,557.14 348.306,558.55L348.306,639.62C348.306,641.03 348.866,642.383 349.863,643.38C350.86,644.377 352.212,644.937 353.622,644.937L446.373,644.937C447.784,644.937 449.136,644.377 450.133,643.38C451.13,642.383 451.69,641.03 451.69,639.62Z" style="fill:rgb(225,2,113);"/>
            </g>
            <g transform="matrix(1.08027,0,0,1.08027,591.891,425.906)">
                <path d="M233.333,270.679L233.333,233.333C233.333,141.286 307.953,66.667 400,66.667C492.047,66.667 566.667,141.286 566.667,233.333L566.667,270.679C622.797,284.406 666.667,331.993 666.667,392.307L666.667,576.923C666.667,665.767 589.487,733.333 500,733.333L300,733.333C210.515,733.333 133.333,665.767 133.333,576.923L133.333,392.307C133.333,331.993 177.203,284.406 233.333,270.679ZM500,233.333C500,221.645 497.993,210.426 494.31,200C480.583,161.16 443.54,133.333 400,133.333C356.46,133.333 319.418,161.16 305.69,200C302.005,210.426 300,221.645 300,233.333L300,266.667L500,266.667L500,233.333ZM200,392.307L200,576.923C200,624.027 242.209,666.667 300,666.667L500,666.667C557.79,666.667 600,624.027 600,576.923L600,392.307C600,362.2 572.713,333.333 533.333,333.333L266.667,333.333C227.285,333.333 200,362.2 200,392.307ZM433.333,466.667L433.333,533.333C433.333,551.743 418.41,566.667 400,566.667C381.59,566.667 366.667,551.743 366.667,533.333L366.667,466.667C366.667,448.257 381.59,433.333 400,433.333C418.41,433.333 433.333,448.257 433.333,466.667Z" style="fill:white;"/>
            </g>
        </g>
    </g>
</svg>
