<?xml version="1.0" encoding="UTF-8" standalone="no"?>
<!DOCTYPE svg PUBLIC "-//W3C//DTD SVG 1.1//EN" "http://www.w3.org/Graphics/SVG/1.1/DTD/svg11.dtd">
<svg width="100%" height="100%" viewBox="0 0 2048 2048" version="1.1" xmlns="http://www.w3.org/2000/svg" xmlns:xlink="http://www.w3.org/1999/xlink" xml:space="preserve" xmlns:serif="http://www.serif.com/" style="fill-rule:evenodd;clip-rule:evenodd;stroke-linejoin:round;stroke-miterlimit:2;">
    <rect id="RSD-Logo" serif:id="RSD Logo" x="0" y="0" width="2048" height="2048" style="fill:none;"/>
    <g id="RSD-Logo1" serif:id="RSD Logo">
        <path d="M1920,0C1990.692,0 2048,57.308 2048,128L2048,1920C2048,1990.692 1990.692,2048 1920,2048L128,2048C57.308,2048 0,1990.692 0,1920L0,128C0,57.308 57.308,0 128,0L1920,0Z" style="fill:rgb(225,2,113);"/>
        <g>
            <g transform="matrix(1,0,0,1,-2099.172692,191.981826)">
                <path d="M2618.426,1166.686L2618.426,1097.989C2618.426,1080.308 2625.45,1063.351 2637.953,1050.849C2650.455,1038.346 2667.412,1031.323 2685.093,1031.323L3111.702,1031.323L3111.702,940.851C3100.883,940.276 3155.853,940.276 3145.035,940.851L3145.035,1031.323L3571.643,1031.323C3589.324,1031.323 3606.281,1038.346 3618.784,1050.849C3631.286,1063.351 3638.31,1080.308 3638.31,1097.989L3638.31,1166.686L3604.977,1166.686L3604.977,1097.989C3604.977,1089.149 3601.465,1080.67 3595.214,1074.419C3588.962,1068.168 3580.484,1064.656 3571.643,1064.656L3145.035,1064.656L3145.035,1166.686L3111.702,1166.686L3111.702,1064.656L2685.093,1064.656C2676.253,1064.656 2667.774,1068.168 2661.523,1074.419C2655.272,1080.67 2651.76,1089.149 2651.76,1097.989L2651.76,1166.686L2618.426,1166.686ZM3627.919,1418.951L3627.919,1551.771L3594.586,1551.771L3594.586,1418.951L3627.919,1418.951ZM3181.049,1418.951L3280.262,1507.469L3255.618,1530.154L3130.98,1418.951L3181.049,1418.951ZM3125.794,1418.951L2996.644,1534.501L2973.385,1510.583L3075.803,1418.951L3125.794,1418.951ZM2651.76,1418.951L2651.76,1551.771L2618.426,1551.771L2618.426,1418.951L2651.76,1418.951ZM2915.94,1538.833C2944.153,1538.833 2967.059,1561.739 2967.059,1589.952C2967.059,1618.166 2944.153,1641.072 2915.94,1641.072C2887.726,1641.072 2864.82,1618.166 2864.82,1589.952C2864.82,1561.739 2887.726,1538.833 2915.94,1538.833ZM3413.855,1220.268L3808.65,1220.268L3808.65,1365.866L3413.855,1365.866L3413.855,1220.268ZM3611.252,1597.542C3652.117,1597.542 3685.295,1630.72 3685.295,1671.585C3685.295,1712.45 3652.117,1745.627 3611.252,1745.627C3570.387,1745.627 3537.21,1712.45 3537.21,1671.585C3537.21,1630.72 3570.387,1597.542 3611.252,1597.542ZM2437.696,1220.268L2832.49,1220.268L2832.49,1365.866L2437.696,1365.866L2437.696,1220.268ZM3333.164,1538.833C3361.378,1538.833 3384.284,1561.739 3384.284,1589.952C3384.284,1618.166 3361.378,1641.072 3333.164,1641.072C3304.951,1641.072 3282.045,1618.166 3282.045,1589.952C3282.045,1561.739 3304.951,1538.833 3333.164,1538.833ZM2635.093,1597.542C2675.958,1597.542 2709.136,1630.72 2709.136,1671.585C2709.136,1712.45 2675.958,1745.627 2635.093,1745.627C2594.228,1745.627 2561.051,1712.45 2561.051,1671.585C2561.051,1630.72 2594.228,1597.542 2635.093,1597.542ZM3050.933,1365.866L3050.933,1220.268L3205.803,1220.268L3205.803,1365.866L3050.933,1365.866ZM2913.984,238.885C2895.506,238.885 2880.504,223.883 2880.504,205.405C2880.504,186.927 2895.506,171.924 2913.984,171.924C2932.463,171.924 2947.465,186.927 2947.465,205.405C2947.465,223.883 2932.463,238.885 2913.984,238.885ZM3123.972,21.613C3105.494,21.613 3090.492,6.611 3090.492,-11.867C3090.492,-30.346 3105.494,-45.348 3123.972,-45.348C3142.45,-45.348 3157.452,-30.346 3157.452,-11.867C3157.452,6.611 3142.45,21.613 3123.972,21.613ZM3332.361,197.75C3313.883,197.75 3298.881,182.748 3298.881,164.27C3298.881,145.792 3313.883,130.789 3332.361,130.789C3350.839,130.789 3365.841,145.792 3365.841,164.27C3365.841,182.748 3350.839,197.75 3332.361,197.75Z" style="fill:rgb(170,1,89);"/>
            </g>
            <g transform="matrix(1,0,0,1,-2099.172692,192.230186)">
                <path d="M3044.992,1463.678L2996.644,1534.501C3007.419,1550.215 3013.726,1569.229 3013.726,1589.704C3013.726,1643.674 2969.909,1687.49 2915.94,1687.49C2861.97,1687.49 2818.153,1643.674 2818.153,1589.704C2818.153,1535.734 2861.97,1491.918 2915.94,1491.918C2937.399,1491.918 2957.253,1498.845 2973.385,1510.583L2973.514,1510.468L2996.644,1534.252L3044.992,1463.678ZM3211.171,1463.623L3255.618,1529.906L3280.125,1507.347L3280.262,1507.469C3295.516,1497.63 3313.678,1491.918 3333.164,1491.918C3387.134,1491.918 3430.951,1535.734 3430.951,1589.704C3430.951,1643.674 3387.134,1687.49 3333.164,1687.49C3279.195,1687.49 3235.378,1643.674 3235.378,1589.704C3235.378,1567.302 3242.927,1546.65 3255.618,1530.154L3211.171,1463.623ZM3044.992,1463.678L3075.525,1418.951L3049.267,1418.951C3020.732,1418.951 2997.6,1395.819 2997.6,1367.284L2997.6,1218.352C2997.6,1189.818 3020.732,1166.686 3049.267,1166.686L3111.702,1166.686L3111.702,1166.437L3145.035,1166.437L3145.035,1166.686L3207.47,1166.686C3236.005,1166.686 3259.136,1189.818 3259.136,1218.352L3259.136,1367.284C3259.136,1395.819 3236.005,1418.951 3207.47,1418.951L3181.328,1418.951L3211.171,1463.623L3181.216,1418.951L3075.632,1418.951L3044.992,1463.678ZM2915.94,1538.584C2887.726,1538.584 2864.82,1561.49 2864.82,1589.704C2864.82,1617.918 2887.726,1640.824 2915.94,1640.824C2944.153,1640.824 2967.059,1617.918 2967.059,1589.704C2967.059,1561.49 2944.153,1538.584 2915.94,1538.584ZM3333.164,1538.584C3304.951,1538.584 3282.045,1561.49 3282.045,1589.704C3282.045,1617.918 3304.951,1640.824 3333.164,1640.824C3361.378,1640.824 3384.284,1617.918 3384.284,1589.704C3384.284,1561.49 3361.378,1538.584 3333.164,1538.584ZM3050.933,1365.617L3205.803,1365.617L3205.803,1220.019L3050.933,1220.019L3050.933,1365.617ZM2618.426,1418.951L2436.029,1418.951C2422.326,1418.951 2409.185,1413.507 2399.495,1403.818C2389.806,1394.129 2384.362,1380.987 2384.362,1367.284L2384.362,1218.352C2384.362,1204.65 2389.806,1191.508 2399.495,1181.819C2409.185,1172.129 2422.326,1166.686 2436.029,1166.686L2618.426,1166.686L2618.426,1166.437L2651.76,1166.437L2651.76,1166.686L2834.157,1166.686C2847.86,1166.686 2861.002,1172.129 2870.691,1181.819C2880.38,1191.508 2885.824,1204.65 2885.824,1218.352L2885.824,1367.284C2885.824,1380.987 2880.38,1394.129 2870.691,1403.818C2861.002,1413.507 2847.86,1418.951 2834.157,1418.951L2651.76,1418.951L2651.76,1418.702L2618.426,1418.702L2618.426,1418.951ZM2437.696,1220.019L2437.696,1365.617L2832.49,1365.617L2832.49,1220.019L2437.696,1220.019ZM3111.702,940.851C3100.883,940.276 3090.087,939.142 3079.356,937.448C3067.575,935.588 3058.461,926.13 3057.039,914.288L3052.013,872.446C3037.094,867.805 3022.63,861.813 3008.8,854.546L2975.659,880.579C2966.279,887.947 2953.147,888.19 2943.501,881.175C2916.914,861.838 2893.525,838.449 2874.188,811.862C2867.172,802.215 2867.415,789.084 2874.783,779.704L2900.816,746.563C2893.549,732.733 2887.558,718.268 2882.917,703.35L2841.075,698.324C2829.232,696.901 2819.775,687.788 2817.915,676.006C2812.788,643.533 2812.788,610.456 2817.915,577.983C2819.775,566.201 2829.232,557.087 2841.075,555.665L2882.917,550.639C2887.558,535.72 2893.549,521.256 2900.816,507.426L2874.783,474.285C2867.415,464.905 2867.172,451.773 2874.188,442.127C2893.525,415.54 2916.914,392.151 2943.501,372.814C2953.147,365.798 2966.279,366.041 2975.659,373.409L3008.799,399.442C3022.63,392.175 3037.094,386.184 3052.012,381.543L3057.039,339.701C3058.461,327.858 3067.575,318.401 3079.356,316.541C3111.83,311.414 3144.907,311.414 3177.38,316.541C3189.162,318.401 3198.275,327.858 3199.698,339.701L3204.724,381.543C3219.642,386.184 3234.107,392.175 3247.937,399.442L3281.078,373.409C3290.458,366.041 3303.589,365.798 3313.236,372.814C3339.823,392.151 3363.212,415.54 3382.549,442.127C3389.564,451.773 3389.321,464.905 3381.953,474.285L3355.92,507.425C3363.187,521.256 3369.179,535.72 3373.82,550.639L3415.662,555.665C3427.504,557.087 3436.962,566.201 3438.822,577.983C3443.948,610.456 3443.948,643.533 3438.822,676.006C3436.962,687.788 3427.504,696.901 3415.662,698.324L3373.82,703.35C3369.179,718.268 3363.187,732.733 3355.92,746.563L3381.953,779.704C3389.321,789.084 3389.564,802.215 3382.549,811.862C3363.212,838.449 3339.823,861.838 3313.236,881.175C3303.589,888.19 3290.458,887.947 3281.078,880.579L3247.937,854.546C3234.107,861.813 3219.642,867.805 3204.724,872.446L3199.698,914.288C3198.275,926.13 3189.162,935.588 3177.38,937.448C3166.65,939.142 3155.853,940.276 3145.035,940.851L3145.035,940.602C3155.853,940.028 3100.883,940.028 3111.702,940.602L3111.702,940.851ZM3125.794,513.14C3062.956,513.14 3011.94,564.156 3011.94,626.994C3011.94,689.832 3062.956,740.849 3125.794,740.849C3188.632,740.849 3239.649,689.832 3239.649,626.994C3239.649,564.156 3188.632,513.14 3125.794,513.14ZM3638.31,1166.437L3638.31,1166.686L3810.316,1166.686C3824.019,1166.686 3837.161,1172.129 3846.85,1181.819C3856.539,1191.508 3861.983,1204.65 3861.983,1218.352L3861.983,1367.284C3861.983,1380.987 3856.539,1394.129 3846.85,1403.818C3837.161,1413.507 3824.019,1418.951 3810.316,1418.951L3627.919,1418.951L3627.919,1418.702L3594.586,1418.702L3594.586,1418.951L3412.188,1418.951C3398.485,1418.951 3385.344,1413.507 3375.654,1403.818C3365.965,1394.129 3360.522,1380.987 3360.522,1367.284L3360.522,1218.352C3360.522,1204.65 3365.965,1191.508 3375.654,1181.819C3385.344,1172.129 3398.485,1166.686 3412.188,1166.686L3604.977,1166.686L3604.977,1166.437L3638.31,1166.437ZM3413.855,1220.019L3413.855,1365.617L3808.65,1365.617L3808.65,1220.019L3413.855,1220.019ZM3627.919,1551.523L3627.919,1551.771C3686.665,1559.899 3731.961,1610.37 3731.961,1671.337C3731.961,1737.958 3677.873,1792.046 3611.252,1792.046C3544.631,1792.046 3490.543,1737.958 3490.543,1671.337C3490.543,1610.37 3535.84,1559.899 3594.586,1551.771L3594.586,1551.523L3627.919,1551.523ZM3611.252,1597.294C3570.387,1597.294 3537.21,1630.471 3537.21,1671.337C3537.21,1712.202 3570.387,1745.379 3611.252,1745.379C3652.117,1745.379 3685.295,1712.202 3685.295,1671.337C3685.295,1630.471 3652.117,1597.294 3611.252,1597.294ZM2651.76,1551.523L2651.76,1551.771C2710.506,1559.899 2755.802,1610.37 2755.802,1671.337C2755.802,1737.958 2701.714,1792.046 2635.093,1792.046C2568.472,1792.046 2514.384,1737.958 2514.384,1671.337C2514.384,1610.37 2559.68,1559.899 2618.426,1551.771L2618.426,1551.523L2651.76,1551.523ZM2635.093,1597.294C2594.228,1597.294 2561.051,1630.471 2561.051,1671.337C2561.051,1712.202 2594.228,1745.379 2635.093,1745.379C2675.958,1745.379 2709.136,1712.202 2709.136,1671.337C2709.136,1630.471 2675.958,1597.294 2635.093,1597.294ZM2896.026,362.17C2893.849,364.695 2890.332,365.6 2887.207,364.439C2884.082,363.278 2882.008,360.296 2882.008,356.963C2881.984,326.869 2881.984,297.254 2881.984,297.254C2843.881,284 2816.504,247.75 2816.504,205.156C2816.504,151.356 2860.183,107.676 2913.984,107.676C2967.785,107.676 3011.465,151.356 3011.465,205.156C3011.465,247.75 2984.087,284 2945.984,297.254L2945.984,312.432C2945.984,314.96 2944.789,317.339 2942.761,318.849C2925.701,331.621 2910.034,346.152 2896.026,362.17ZM2913.984,238.637C2932.463,238.637 2947.465,223.635 2947.465,205.156C2947.465,186.678 2932.463,171.676 2913.984,171.676C2895.506,171.676 2880.504,186.678 2880.504,205.156C2880.504,223.635 2895.506,238.637 2913.984,238.637ZM3100.602,259.464C3098.379,259.64 3096.183,258.879 3094.545,257.365C3092.907,255.851 3091.975,253.722 3091.975,251.492C3091.972,212.911 3091.972,79.982 3091.972,79.982C3053.869,66.728 3026.492,30.478 3026.492,-12.116C3026.492,-65.917 3070.171,-109.596 3123.972,-109.596C3177.773,-109.596 3221.452,-65.917 3221.452,-12.116C3221.452,30.478 3194.075,66.728 3155.972,79.982L3155.972,251.492C3155.972,253.723 3155.04,255.853 3153.401,257.367C3151.763,258.882 3149.566,259.643 3147.342,259.467C3139.629,258.874 3131.835,258.573 3123.972,258.573C3116.109,258.573 3108.315,258.874 3100.602,259.464ZM3123.972,21.365C3142.45,21.365 3157.452,6.363 3157.452,-12.116C3157.452,-30.594 3142.45,-45.596 3123.972,-45.596C3105.494,-45.596 3090.492,-30.594 3090.492,-12.116C3090.492,6.363 3105.494,21.365 3123.972,21.365ZM3303.627,317.688C3301.576,316.181 3300.365,313.788 3300.365,311.243C3300.361,295.065 3300.361,256.119 3300.361,256.119C3262.258,242.865 3234.881,206.615 3234.881,164.021C3234.881,110.221 3278.56,66.541 3332.361,66.541C3386.162,66.541 3429.841,110.221 3429.841,164.021C3429.841,206.615 3402.464,242.865 3364.361,256.119L3364.361,355.148C3364.361,358.48 3362.295,361.463 3359.176,362.636C3356.057,363.809 3352.538,362.925 3350.342,360.418C3336.322,344.598 3320.657,330.272 3303.627,317.688ZM3332.361,197.502C3350.839,197.502 3365.841,182.5 3365.841,164.021C3365.841,145.543 3350.839,130.541 3332.361,130.541C3313.883,130.541 3298.881,145.543 3298.881,164.021C3298.881,182.5 3313.883,197.502 3332.361,197.502Z" style="fill:white;"/>
            </g>
        </g>
    </g>
</svg>
