<?xml version="1.0" encoding="UTF-8" standalone="no"?>
<!DOCTYPE svg PUBLIC "-//W3C//DTD SVG 1.1//EN" "http://www.w3.org/Graphics/SVG/1.1/DTD/svg11.dtd">
<svg width="100%" height="100%" viewBox="0 0 2048 2048" version="1.1" xmlns="http://www.w3.org/2000/svg" xmlns:xlink="http://www.w3.org/1999/xlink" xml:space="preserve" xmlns:serif="http://www.serif.com/" style="fill-rule:evenodd;clip-rule:evenodd;stroke-linejoin:round;stroke-miterlimit:2;">
    <rect id="RTOS-Logo" serif:id="RTOS Logo" x="0" y="0" width="2048" height="2048" style="fill:none;"/>
    <g id="RTOS-Logo1" serif:id="RTOS Logo">
        <path d="M1920,0C1990.69,0 2048,57.308 2048,128L2048,1920C2048,1990.69 1990.69,2048 1920,2048L128,2048C57.308,2048 0,1990.69 0,1920L0,128C0,57.308 57.308,0 128,0L1920,0Z" style="fill:rgb(225,2,113);"/>
        <g>
            <g id="Zephr" transform="matrix(7.27801,0,0,7.27801,35.0491,816.429)">
                <g transform="matrix(1,0,0,1,-1.374,0)">
                    <path d="M138.885,123.804C138.955,123.408 138.803,123.005 138.488,122.754C138.173,122.503 137.746,122.445 137.375,122.601C131.958,124.888 116.211,131.537 110.4,133.991C110.006,134.157 109.744,134.538 109.729,134.966C109.715,135.394 109.95,135.791 110.332,135.984C115.568,138.629 129.001,145.413 133.267,147.568C133.578,147.724 133.944,147.725 134.255,147.569C134.566,147.413 134.785,147.119 134.845,146.777C135.629,142.324 137.99,128.897 138.885,123.804Z" style="fill:white;fill-rule:nonzero;"/>
                </g>
                <path d="M70.117,140.321C70.498,140.117 70.724,139.709 70.695,139.279C70.666,138.848 70.388,138.474 69.983,138.323C63.862,136.031 47.099,129.756 41.23,127.558C40.84,127.412 40.4,127.499 40.095,127.783C39.79,128.067 39.672,128.499 39.79,128.899C41.319,134.082 45.22,147.31 46.457,151.504C46.55,151.822 46.782,152.08 47.087,152.208C47.392,152.335 47.739,152.319 48.03,152.162C52.023,150.022 64.97,143.081 70.117,140.321Z" style="fill:white;fill-rule:nonzero;"/>
                <path d="M87.226,116.96C87.406,116.693 87.694,116.518 88.015,116.482C88.335,116.446 88.655,116.553 88.89,116.773C92.06,119.75 102.375,129.433 106.492,133.299C106.804,133.591 106.918,134.038 106.784,134.444C106.651,134.85 106.294,135.141 105.869,135.192C99.372,135.961 81.179,138.117 74.637,138.892C74.211,138.943 73.794,138.74 73.57,138.373C73.346,138.006 73.356,137.543 73.597,137.186C76.793,132.443 84.782,120.588 87.226,116.96Z" style="fill:white;fill-rule:nonzero;"/>
                <path d="M41.732,98.201C42.072,98.156 42.413,98.273 42.655,98.516C42.897,98.76 43.011,99.102 42.964,99.442C42.315,104.116 40.251,118.976 39.47,124.6C39.413,125.013 39.127,125.358 38.732,125.491C38.337,125.624 37.9,125.522 37.605,125.227C33.121,120.752 20.242,107.896 15.735,103.398C15.439,103.102 15.336,102.664 15.471,102.267C15.605,101.871 15.953,101.585 16.369,101.53C22.051,100.784 37.034,98.818 41.732,98.201Z" style="fill:white;fill-rule:nonzero;"/>
                <path d="M139.235,121.815L220.898,46.688L257.609,95.332L139.235,121.815Z" style="fill:rgb(178,1,92);fill-rule:nonzero;stroke:white;stroke-width:2.2px;"/>
                <path d="M139.235,121.815L174.116,11.275L220.898,46.688L139.235,121.815Z" style="fill:rgb(178,1,92);fill-rule:nonzero;stroke:white;stroke-width:2.2px;"/>
                <path d="M174.116,11.275L257.609,11.275L220.898,46.688L174.116,11.275Z" style="fill:rgb(178,1,92);fill-rule:nonzero;stroke:white;stroke-width:2.2px;"/>
                <path d="M257.609,95.332L257.609,11.275L220.898,46.688L257.609,95.332Z" style="fill:rgb(178,1,92);fill-rule:nonzero;stroke:white;stroke-width:2.2px;"/>
            </g>
            <g transform="matrix(1,0,0,1,10,219.503)">
                <path d="M564.976,1517.25C563.331,1519.69 560.695,1521.28 557.769,1521.6C554.843,1521.92 551.925,1520.94 549.792,1518.91C482.325,1454.26 429.377,1377.08 393.371,1292.51C392.333,1290.05 392.323,1287.28 393.343,1284.81C394.363,1282.35 396.328,1280.39 398.8,1279.38C421.775,1269.99 480.924,1245.83 503.742,1236.5C508.804,1234.44 514.589,1236.82 516.727,1241.85C543.199,1303.51 580.874,1360.25 628.298,1408.99C631.617,1412.38 632.097,1417.63 629.446,1421.57C616.582,1440.67 580.007,1494.94 564.976,1517.25ZM1410.82,626.184C1408.25,626.184 1405.78,625.197 1403.92,623.428C1368.11,589.457 1328.06,560.604 1284.95,537.484C1280.12,534.919 1278.25,528.954 1280.75,524.093C1292.01,502.165 1321.19,445.335 1332.53,423.255C1333.76,420.877 1335.88,419.087 1338.43,418.284C1340.98,417.481 1343.74,417.733 1346.11,418.983C1432.82,465.15 1509.65,529.961 1570.39,610.181C1572.67,613.208 1573.04,617.261 1571.35,620.649C1569.65,624.037 1566.19,626.178 1562.41,626.178C1521.78,626.184 1430.96,626.184 1410.82,626.184ZM483.782,1137.85C484.928,1143.2 481.571,1148.47 476.245,1149.69C452.222,1155.21 389.954,1169.5 365.761,1175.05C363.156,1175.65 360.421,1175.18 358.165,1173.75C355.908,1172.32 354.319,1170.04 353.752,1167.43C343.754,1120.7 338.586,1072.65 338.586,1024C338.586,927.253 358.689,835.165 394.913,751.671C395.984,749.226 397.99,747.311 400.482,746.354C402.974,745.396 405.746,745.475 408.179,746.574C430.804,756.784 489.036,783.08 511.499,793.223C516.484,795.474 518.735,801.312 516.552,806.327C487.816,873.125 471.919,946.721 471.919,1024C471.919,1062.6 475.959,1100.74 483.782,1137.85ZM569.364,710.882C566.275,715.39 560.139,716.582 555.587,713.557C535.056,699.92 481.845,664.556 461.173,650.817C458.947,649.338 457.406,647.03 456.893,644.407C456.381,641.785 456.939,639.066 458.443,636.858C581.995,456.773 789.31,338.586 1024,338.586C1092.97,338.586 1160.6,348.963 1224.92,368.689C1227.47,369.48 1229.6,371.259 1230.83,373.63C1232.06,376 1232.29,378.764 1231.47,381.306C1223.85,404.928 1204.21,465.727 1196.64,489.183C1194.96,494.386 1189.41,497.274 1184.18,495.667C1132.87,480.1 1078.96,471.919 1024,471.919C835.533,471.919 669.012,566.584 569.364,710.882Z" style="fill:white;"/>
            </g>
            <g transform="matrix(1.50992,0,0,1.50992,1064.21,-11.3686)">
                <path d="M19.999,962.932C13.726,964.836 7.32,966.291 0.83,967.284L-4.334,992.424C-14.761,993.437 -25.261,993.437 -35.688,992.424L-40.852,967.284C-50.846,965.754 -60.641,963.13 -70.061,959.457L-87.103,978.647C-96.64,974.311 -105.734,969.061 -114.257,962.97L-106.159,938.616C-114.05,932.294 -121.22,925.124 -127.542,917.233L-151.896,925.331C-157.987,916.808 -163.237,907.714 -167.573,898.177L-148.383,881.135C-152.056,871.715 -154.68,861.92 -156.21,851.926L-181.35,846.762C-182.363,836.335 -182.363,825.835 -181.35,815.408L-156.21,810.244C-154.68,800.25 -152.056,790.454 -148.383,781.035L-167.573,763.992C-163.237,754.456 -157.987,745.362 -151.896,736.838L-127.542,744.936C-121.22,737.046 -114.05,729.875 -106.159,723.554L-114.257,699.2C-105.734,693.109 -96.64,687.859 -87.103,683.523L-70.061,702.713C-60.641,699.04 -50.846,696.415 -40.852,694.886L-35.688,669.746C-25.261,668.733 -14.761,668.733 -4.334,669.746L0.83,694.886C10.824,696.415 20.62,699.04 30.039,702.713L47.082,683.523C56.618,687.859 65.712,693.109 74.236,699.2L66.138,723.554C74.028,729.875 81.199,737.046 87.52,744.936L88.937,744.465L19.999,962.932ZM-20.011,798.665C-37.904,798.665 -52.431,813.192 -52.431,831.085C-52.431,848.978 -37.904,863.505 -20.011,863.505C-2.118,863.505 12.409,848.978 12.409,831.085C12.409,813.192 -2.118,798.665 -20.011,798.665Z" style="fill:rgb(170,1,89);"/>
            </g>
            <g transform="matrix(1.50992,0,0,1.50992,1064.21,-11.3686)">
                <circle cx="-20.011" cy="831.085" r="32.42" style="fill:white;"/>
            </g>
            <g transform="matrix(0.258819,-0.965926,0.965926,0.258819,212.598,783.432)">
                <g transform="matrix(1.17677,-3.2662e-17,-5.80451e-17,0.749352,41.3437,264.57)">
                    <path d="M-231.89,582.205C-226.256,582.205 -220.852,585.72 -216.868,591.976C-212.884,598.233 -210.645,606.719 -210.645,615.567C-210.645,695.805 -210.645,898.855 -210.645,979.093C-210.645,987.941 -212.884,996.427 -216.868,1002.68C-220.852,1008.94 -226.256,1012.46 -231.89,1012.46C-231.89,1012.46 -231.89,1012.46 -231.89,1012.46C-237.524,1012.46 -242.928,1008.94 -246.912,1002.68C-250.896,996.427 -253.135,987.941 -253.135,979.093C-253.135,898.855 -253.135,695.805 -253.135,615.567C-253.135,606.719 -250.896,598.233 -246.912,591.976C-242.928,585.72 -237.524,582.205 -231.89,582.205C-231.89,582.205 -231.89,582.205 -231.89,582.205Z" style="fill:white;"/>
                </g>
                <g transform="matrix(2.80083e-16,0.906562,-1.39782,3.10124e-16,1072.65,1122.22)">
                    <path d="M-231.888,582.205C-220.156,582.205 -210.645,588.373 -210.645,595.982C-210.645,660.688 -210.645,933.972 -210.645,998.678C-210.645,1006.29 -220.156,1012.46 -231.888,1012.46C-231.889,1012.46 -231.891,1012.46 -231.892,1012.46C-243.624,1012.46 -253.135,1006.29 -253.135,998.678C-253.135,933.972 -253.135,660.688 -253.135,595.982C-253.135,588.373 -243.624,582.205 -231.892,582.205C-231.891,582.205 -231.889,582.205 -231.888,582.205Z" style="fill:white;"/>
                </g>
            </g>
            <g transform="matrix(0.591943,0,0,0.571841,387.724,436.801)">
                <g transform="matrix(1.47071,0,0,1.47071,-496.109,-806.788)">
                    <path d="M824.397,519.498C842.875,519.498 857.877,504.496 857.877,486.017C857.877,467.539 842.875,452.537 824.397,452.537C805.919,452.537 790.917,467.539 790.917,486.017C790.917,504.496 805.919,519.498 824.397,519.498ZM1034.38,302.226C1052.86,302.226 1067.87,287.224 1067.87,268.745C1067.87,250.267 1052.86,235.265 1034.38,235.265C1015.91,235.265 1000.9,250.267 1000.9,268.745C1000.9,287.224 1015.91,302.226 1034.38,302.226ZM1242.77,478.363C1261.25,478.363 1276.25,463.361 1276.25,444.882C1276.25,426.404 1261.25,411.402 1242.77,411.402C1224.3,411.402 1209.29,426.404 1209.29,444.882C1209.29,463.361 1224.3,478.363 1242.77,478.363Z" style="fill:rgb(170,1,89);"/>
                </g>
                <g transform="matrix(1.47071,0,0,1.47071,-496.109,-806.788)">
                    <path d="M792.398,711.085L792.397,578.115C754.294,564.861 726.917,528.611 726.917,486.017C726.917,432.217 770.596,388.537 824.397,388.537C878.198,388.537 921.877,432.217 921.877,486.017C921.877,528.611 894.5,564.861 856.397,578.115L856.397,689.397C834.687,695.738 813.34,702.982 792.398,711.085ZM1002.38,661.279L1002.38,360.843C964.282,347.589 936.904,311.339 936.904,268.745C936.904,214.944 980.584,171.265 1034.38,171.265C1088.19,171.265 1131.87,214.944 1131.87,268.745C1131.87,311.339 1104.49,347.589 1066.38,360.843L1066.38,657.667C1044.84,658.021 1023.5,659.236 1002.38,661.279ZM1210.77,668.447L1210.77,536.98C1172.67,523.726 1145.29,487.476 1145.29,444.882C1145.29,391.082 1188.97,347.402 1242.77,347.402C1296.58,347.402 1340.25,391.082 1340.25,444.882C1340.25,487.476 1312.88,523.726 1274.77,536.98L1274.77,681.881C1253.68,676.54 1232.33,672.054 1210.77,668.447ZM824.397,519.498C842.875,519.498 857.877,504.496 857.877,486.017C857.877,467.539 842.875,452.537 824.397,452.537C805.919,452.537 790.917,467.539 790.917,486.017C790.917,504.496 805.919,519.498 824.397,519.498ZM1034.38,302.226C1052.86,302.226 1067.87,287.224 1067.87,268.745C1067.87,250.267 1052.86,235.265 1034.38,235.265C1015.91,235.265 1000.9,250.267 1000.9,268.745C1000.9,287.224 1015.91,302.226 1034.38,302.226ZM1242.77,478.363C1261.25,478.363 1276.25,463.361 1276.25,444.882C1276.25,426.404 1261.25,411.402 1242.77,411.402C1224.3,411.402 1209.29,426.404 1209.29,444.882C1209.29,463.361 1224.3,478.363 1242.77,478.363Z" style="fill:white;"/>
                </g>
            </g>
        </g>
    </g>
</svg>
