<?xml version="1.0" encoding="UTF-8" standalone="no"?>
<svg
   xmlns:dc="http://purl.org/dc/elements/1.1/"
   xmlns:cc="http://creativecommons.org/ns#"
   xmlns:rdf="http://www.w3.org/1999/02/22-rdf-syntax-ns#"
   xmlns:svg="http://www.w3.org/2000/svg"
   xmlns="http://www.w3.org/2000/svg"
   xmlns:sodipodi="http://sodipodi.sourceforge.net/DTD/sodipodi-0.dtd"
   xmlns:inkscape="http://www.inkscape.org/namespaces/inkscape"
   inkscape:export-ydpi="543.05994"
   inkscape:export-xdpi="543.05994"
   inkscape:export-filename="C:\work\OneDrive - HESSO\hevs\10_Course\01_Admin\images\logo\SEm_logo_6.png"
   width="23.386mm"
   height="23.386mm"
   viewBox="0 0 23.385999 23.386"
   version="1.1"
   id="svg8"
   inkscape:version="1.0 (4035a4fb49, 2020-05-01)"
   sodipodi:docname="SEm_logo.svg">
  <defs
     id="defs2">
    <inkscape:perspective
       id="perspective2625"
       inkscape:persp3d-origin="372.04723 : 350.78737 : 1"
       inkscape:vp_z="744.09447 : 526.18106 : 1"
       inkscape:vp_y="0 : 999.99995 : 0"
       inkscape:vp_x="0 : 526.18106 : 1"
       sodipodi:type="inkscape:persp3d" />
    <inkscape:perspective
       sodipodi:type="inkscape:persp3d"
       inkscape:vp_x="0 : 526.18106 : 1"
       inkscape:vp_y="0 : 999.99995 : 0"
       inkscape:vp_z="744.09447 : 526.18106 : 1"
       inkscape:persp3d-origin="372.04723 : 350.78737 : 1"
       id="perspective2636" />
    <inkscape:perspective
       sodipodi:type="inkscape:persp3d"
       inkscape:vp_x="0 : 526.18106 : 1"
       inkscape:vp_y="0 : 999.99995 : 0"
       inkscape:vp_z="744.09447 : 526.18106 : 1"
       inkscape:persp3d-origin="372.04723 : 350.78737 : 1"
       id="perspective2443" />
    <inkscape:perspective
       sodipodi:type="inkscape:persp3d"
       inkscape:vp_x="0 : 526.18106 : 1"
       inkscape:vp_y="0 : 999.99995 : 0"
       inkscape:vp_z="744.09447 : 526.18106 : 1"
       inkscape:persp3d-origin="372.04723 : 350.78737 : 1"
       id="perspective2568" />
    <inkscape:perspective
       sodipodi:type="inkscape:persp3d"
       inkscape:vp_x="0 : 526.18106 : 1"
       inkscape:vp_y="0 : 999.99995 : 0"
       inkscape:vp_z="744.09447 : 526.18106 : 1"
       inkscape:persp3d-origin="372.04723 : 350.78737 : 1"
       id="perspective2735" />
    <inkscape:perspective
       sodipodi:type="inkscape:persp3d"
       inkscape:vp_x="0 : 526.18106 : 1"
       inkscape:vp_y="0 : 999.99995 : 0"
       inkscape:vp_z="744.09447 : 526.18106 : 1"
       inkscape:persp3d-origin="372.04723 : 350.78737 : 1"
       id="perspective2858" />
  </defs>
  <sodipodi:namedview
     id="base"
     pagecolor="#ffffff"
     bordercolor="#666666"
     borderopacity="1.0"
     inkscape:pageopacity="0.0"
     inkscape:pageshadow="2"
     inkscape:zoom="8"
     inkscape:cx="46.513584"
     inkscape:cy="49.722057"
     inkscape:document-units="mm"
     inkscape:current-layer="g1001"
     showgrid="false"
     inkscape:window-width="1920"
     inkscape:window-height="1017"
     inkscape:window-x="1912"
     inkscape:window-y="32"
     inkscape:window-maximized="1"
     fit-margin-top="0"
     fit-margin-left="0"
     fit-margin-right="0"
     fit-margin-bottom="0"
     inkscape:snap-center="true"
     inkscape:document-rotation="0" />
  <metadata
     id="metadata5">
    <rdf:RDF>
      <cc:Work
         rdf:about="">
        <dc:format>image/svg+xml</dc:format>
        <dc:type
           rdf:resource="http://purl.org/dc/dcmitype/StillImage" />
        <dc:title></dc:title>
      </cc:Work>
    </rdf:RDF>
  </metadata>
  <g
     inkscape:label="Layer 1"
     inkscape:groupmode="layer"
     id="layer1"
     style="display:none;opacity:1"
     transform="translate(-59.839395,-121.80152)">
    <circle
       id="path59"
       cx="71.532394"
       cy="133.49452"
       style="fill:#c8306f;fill-opacity:1;stroke-width:0.202192"
       r="11.693"
       inkscape:export-xdpi="543.05994"
       inkscape:export-ydpi="543.05994" />
    <path
       style="color:#000000;font-style:normal;font-variant:normal;font-weight:normal;font-stretch:normal;font-size:medium;line-height:normal;font-family:sans-serif;font-variant-ligatures:normal;font-variant-position:normal;font-variant-caps:normal;font-variant-numeric:normal;font-variant-alternates:normal;font-feature-settings:normal;text-indent:0;text-align:start;text-decoration:none;text-decoration-line:none;text-decoration-style:solid;text-decoration-color:#000000;letter-spacing:normal;word-spacing:normal;text-transform:none;writing-mode:lr-tb;direction:ltr;text-orientation:mixed;dominant-baseline:auto;baseline-shift:baseline;text-anchor:start;white-space:normal;shape-padding:0;clip-rule:nonzero;display:inline;overflow:visible;visibility:visible;opacity:1;isolation:auto;mix-blend-mode:normal;color-interpolation:sRGB;color-interpolation-filters:linearRGB;solid-color:#000000;solid-opacity:1;vector-effect:none;fill:#000000;fill-opacity:0.348066;fill-rule:nonzero;stroke:none;stroke-width:0.266107;stroke-linecap:butt;stroke-linejoin:miter;stroke-miterlimit:4;stroke-dasharray:none;stroke-dashoffset:0;stroke-opacity:1;color-rendering:auto;image-rendering:auto;shape-rendering:auto;text-rendering:auto;enable-background:accumulate"
       d="m 77.688081,129.92287 -2.419227,0.44907 -0.20648,6.63523 -6.617844,0.017 -0.52535,2.55539 5.426528,5.45908 a 11.693,11.693 0 0 0 9.744332,-9.8681 z"
       id="rect4880"
       inkscape:connector-curvature="0"
       inkscape:export-xdpi="543.05994"
       inkscape:export-ydpi="543.05994" />
    <g
       transform="matrix(0.26764114,0,0,0.26458238,64.573502,126.6154)"
       id="g4724"
       style="fill:#ffffff"
       inkscape:export-xdpi="543.05994"
       inkscape:export-ydpi="543.05994">
      <rect
         id="rect4684"
         y="17.5"
         x="3"
         width="7"
         height="2"
         style="fill:#ffffff" />
      <rect
         id="rect4686"
         y="22.5"
         x="3"
         width="7"
         height="2"
         style="fill:#ffffff" />
      <rect
         id="rect4688"
         y="27.5"
         x="3"
         width="7"
         height="2"
         style="fill:#ffffff" />
      <rect
         id="rect4690"
         y="32.5"
         x="3"
         width="7"
         height="2"
         style="fill:#ffffff" />
      <rect
         id="rect4692"
         y="37.5"
         x="3"
         width="7"
         height="2"
         style="fill:#ffffff" />
      <g
         id="g4712"
         style="fill:#ffffff">
        <g
           id="g4698"
           style="fill:#ffffff">
          <path
             style="fill:#ffffff"
             d="m 30.189453,21.195312 v 6.998047 h -2.496094 v 32 h 32 v -2.498047 h 6.996094 v -2 h -6.996094 v -3 h 6.996094 v -2 h -6.996094 v -3 h 6.996094 v -2 h -6.996094 v -3 h 6.996094 v -2 h -6.996094 v -3 h 6.996094 v -2 h -6.996094 v -3 h 6.996094 v -2 h -6.996094 v -2.501953 h -2.503906 v -6.998047 h -2 v 6.998047 h -3 v -6.998047 h -2 v 6.998047 h -3 v -6.998047 h -2 v 6.998047 h -3 v -6.998047 h -2 v 6.998047 h -3 v -6.998047 h -2 v 6.998047 h -3 v -6.998047 z m 1.820313,13.513672 h 2.294922 v 0.927735 h 4.511718 v 6.84375 h 4.982422 c 0.0025,3.3e-5 0.0033,-0.0021 0.0059,-0.002 h 2.865234 v -1.527344 h 3.24414 c 1.915367,0 3.131407,1.497522 3.22461,3.054687 l 2.884766,-0.0078 c 0.252049,-4.54e-4 0.252056,0.376386 0,0.376953 l -2.884766,0.0078 c -0.09063,1.505273 -1.247918,2.940291 -3.087891,3.035157 v 0.01758 l -0.1875,0.002 c -1.039937,0.0015 -3.003906,0 -3.003906,0 h -0.189453 v -1.527344 h -2.863281 v 0.002 h -4.990235 v 6.835938 h -4.511718 v 0.882812 h -2.294922 v -1.804687 -0.492188 h 2.294922 v 1.03711 h 4.134765 v -6.841797 h 5.367188 v 0.0039 h 2.863281 v -2.677734 h -2.863281 v 0.002 h -5.367188 v -6.84375 h -4.134765 v 0.992187 h -2.294922 v -1.804687 z"
             transform="translate(-17.688261,-18.194268)"
             id="path4694"
             inkscape:connector-curvature="0" />
          <rect
             id="rect4696"
             y="12.5"
             x="3"
             width="7"
             height="2"
             style="fill:#ffffff" />
        </g>
        <rect
           height="7"
           width="2"
           x="37.5"
           y="42"
           id="rect4700"
           style="fill:#ffffff" />
        <rect
           height="7"
           width="2"
           x="32.5"
           y="42"
           id="rect4702"
           style="fill:#ffffff" />
        <rect
           height="7"
           width="2"
           x="27.5"
           y="42"
           id="rect4704"
           style="fill:#ffffff" />
        <rect
           height="7"
           width="2"
           x="22.5"
           y="42"
           id="rect4706"
           style="fill:#ffffff" />
        <rect
           height="7"
           width="2"
           x="17.5"
           y="42"
           id="rect4708"
           style="fill:#ffffff" />
        <rect
           height="7"
           width="2"
           x="12.5"
           y="42"
           id="rect4710"
           style="fill:#ffffff" />
      </g>
    </g>
    <g
       id="g938"
       transform="matrix(0.26458333,0,0,0.26458333,-18.803565,-0.62887993)">
      <g
         style="opacity:1"
         id="g944"
         transform="matrix(0.18193184,0,0,0.18193184,341.72828,425.88207)" />
    </g>
  </g>
  <g
     inkscape:label="Layer 1 copy copy 1"
     inkscape:groupmode="layer"
     id="g1001"
     style="display:none;opacity:1"
     transform="translate(-59.839395,-121.80152)">
    <circle
       id="circle961"
       cx="71.532394"
       cy="133.49452"
       style="fill:#c8306f;fill-opacity:1;stroke-width:0.202192"
       r="11.693"
       inkscape:export-xdpi="543.05994"
       inkscape:export-ydpi="543.05994" />
    <path
       style="color:#000000;font-style:normal;font-variant:normal;font-weight:normal;font-stretch:normal;font-size:medium;line-height:normal;font-family:sans-serif;font-variant-ligatures:normal;font-variant-position:normal;font-variant-caps:normal;font-variant-numeric:normal;font-variant-alternates:normal;font-feature-settings:normal;text-indent:0;text-align:start;text-decoration:none;text-decoration-line:none;text-decoration-style:solid;text-decoration-color:#000000;letter-spacing:normal;word-spacing:normal;text-transform:none;writing-mode:lr-tb;direction:ltr;text-orientation:mixed;dominant-baseline:auto;baseline-shift:baseline;text-anchor:start;white-space:normal;shape-padding:0;clip-rule:nonzero;display:inline;overflow:visible;visibility:visible;opacity:1;isolation:auto;mix-blend-mode:normal;color-interpolation:sRGB;color-interpolation-filters:linearRGB;solid-color:#000000;solid-opacity:1;vector-effect:none;fill:#000000;fill-opacity:0.348066;fill-rule:nonzero;stroke:none;stroke-width:0.266107;stroke-linecap:butt;stroke-linejoin:miter;stroke-miterlimit:4;stroke-dasharray:none;stroke-dashoffset:0;stroke-opacity:1;color-rendering:auto;image-rendering:auto;shape-rendering:auto;text-rendering:auto;enable-background:accumulate"
       d="m 77.688081,129.92287 -2.419227,0.44907 -0.20648,6.63523 -6.617844,0.017 -0.52535,2.55539 5.426528,5.45908 a 11.693,11.693 0 0 0 9.744332,-9.8681 z"
       id="path963"
       inkscape:connector-curvature="0"
       inkscape:export-xdpi="543.05994"
       inkscape:export-ydpi="543.05994" />
    <g
       transform="matrix(0.26764114,0,0,0.26458238,64.573502,126.6154)"
       id="g995"
       style="fill:#ffffff"
       inkscape:export-xdpi="543.05994"
       inkscape:export-ydpi="543.05994">
      <rect
         id="rect965"
         y="17.5"
         x="3"
         width="7"
         height="2"
         style="fill:#ffffff" />
      <rect
         id="rect967"
         y="22.5"
         x="3"
         width="7"
         height="2"
         style="fill:#ffffff" />
      <rect
         id="rect969"
         y="27.5"
         x="3"
         width="7"
         height="2"
         style="fill:#ffffff" />
      <rect
         id="rect971"
         y="32.5"
         x="3"
         width="7"
         height="2"
         style="fill:#ffffff" />
      <rect
         id="rect973"
         y="37.5"
         x="3"
         width="7"
         height="2"
         style="fill:#ffffff" />
      <g
         id="g993"
         style="fill:#ffffff">
        <g
           id="g979"
           style="fill:#ffffff">
          <path
             sodipodi:nodetypes="ccccccccccccccccccccccccccccccccccccccccccccccccccccc"
             style="fill:#ffffff"
             d="m 30.189453,21.195312 v 6.998047 h -2.496094 v 32 h 32 v -2.498047 h 6.996094 v -2 h -6.996094 v -3 h 6.996094 v -2 h -6.996094 v -3 h 6.996094 v -2 h -6.996094 v -3 h 6.996094 v -2 h -6.996094 v -3 h 6.996094 v -2 h -6.996094 v -3 h 6.996094 v -2 h -6.996094 v -2.501953 h -2.503906 v -6.998047 h -2 v 6.998047 h -3 v -6.998047 h -2 v 6.998047 h -3 v -6.998047 h -2 v 6.998047 h -3 v -6.998047 h -2 v 6.998047 h -3 v -6.998047 h -2 v 6.998047 h -3 v -6.998047 z"
             transform="translate(-17.688261,-18.194268)"
             id="path975"
             inkscape:connector-curvature="0" />
          <rect
             id="rect977"
             y="12.5"
             x="3"
             width="7"
             height="2"
             style="fill:#ffffff" />
        </g>
        <rect
           height="7"
           width="2"
           x="37.5"
           y="42"
           id="rect981"
           style="fill:#ffffff" />
        <rect
           height="7"
           width="2"
           x="32.5"
           y="42"
           id="rect983"
           style="fill:#ffffff" />
        <rect
           height="7"
           width="2"
           x="27.5"
           y="42"
           id="rect985"
           style="fill:#ffffff" />
        <rect
           height="7"
           width="2"
           x="22.5"
           y="42"
           id="rect987"
           style="fill:#ffffff" />
        <rect
           height="7"
           width="2"
           x="17.5"
           y="42"
           id="rect989"
           style="fill:#ffffff" />
        <rect
           height="7"
           width="2"
           x="12.5"
           y="42"
           id="rect991"
           style="fill:#ffffff" />
      </g>
    </g>
    <g
       id="g999"
       transform="matrix(0.26458333,0,0,0.26458333,-18.803565,-0.62887993)">
      <g
         style="opacity:1"
         id="g997"
         transform="matrix(0.18193184,0,0,0.18193184,341.72828,425.88207)" />
    </g>
  </g>
  <g
     transform="translate(-59.839395,-121.80152)"
     style="display:none;opacity:1"
     id="g986"
     inkscape:groupmode="layer"
     inkscape:label="Layer 1 copy"
     sodipodi:insensitive="true">
    <circle
       inkscape:export-ydpi="543.05994"
       inkscape:export-xdpi="543.05994"
       r="11.693"
       style="fill:#c8306f;fill-opacity:1;stroke-width:0.202192"
       cy="133.49452"
       cx="71.532394"
       id="circle946" />
    <path
       inkscape:export-ydpi="543.05994"
       inkscape:export-xdpi="543.05994"
       inkscape:connector-curvature="0"
       id="path948"
       d="m 77.688081,129.92287 -2.419227,0.44907 -0.20648,6.63523 -6.617844,0.017 -0.52535,2.55539 5.426528,5.45908 a 11.693,11.693 0 0 0 9.744332,-9.8681 z"
       style="color:#000000;font-style:normal;font-variant:normal;font-weight:normal;font-stretch:normal;font-size:medium;line-height:normal;font-family:sans-serif;font-variant-ligatures:normal;font-variant-position:normal;font-variant-caps:normal;font-variant-numeric:normal;font-variant-alternates:normal;font-feature-settings:normal;text-indent:0;text-align:start;text-decoration:none;text-decoration-line:none;text-decoration-style:solid;text-decoration-color:#000000;letter-spacing:normal;word-spacing:normal;text-transform:none;writing-mode:lr-tb;direction:ltr;text-orientation:mixed;dominant-baseline:auto;baseline-shift:baseline;text-anchor:start;white-space:normal;shape-padding:0;clip-rule:nonzero;display:inline;overflow:visible;visibility:visible;opacity:1;isolation:auto;mix-blend-mode:normal;color-interpolation:sRGB;color-interpolation-filters:linearRGB;solid-color:#000000;solid-opacity:1;vector-effect:none;fill:#000000;fill-opacity:0.348066;fill-rule:nonzero;stroke:none;stroke-width:0.266107;stroke-linecap:butt;stroke-linejoin:miter;stroke-miterlimit:4;stroke-dasharray:none;stroke-dashoffset:0;stroke-opacity:1;color-rendering:auto;image-rendering:auto;shape-rendering:auto;text-rendering:auto;enable-background:accumulate" />
    <g
       inkscape:export-ydpi="543.05994"
       inkscape:export-xdpi="543.05994"
       style="fill:#ffffff"
       id="g980"
       transform="matrix(0.26764114,0,0,0.26458238,64.573502,126.6154)">
      <rect
         style="fill:#ffffff"
         height="2"
         width="7"
         x="3"
         y="17.5"
         id="rect950" />
      <rect
         style="fill:#ffffff"
         height="2"
         width="7"
         x="3"
         y="22.5"
         id="rect952" />
      <rect
         style="fill:#ffffff"
         height="2"
         width="7"
         x="3"
         y="27.5"
         id="rect954" />
      <rect
         style="fill:#ffffff"
         height="2"
         width="7"
         x="3"
         y="32.5"
         id="rect956" />
      <rect
         style="fill:#ffffff"
         height="2"
         width="7"
         x="3"
         y="37.5"
         id="rect958" />
      <g
         style="fill:#ffffff"
         id="g978">
        <g
           style="fill:#ffffff"
           id="g964">
          <path
             inkscape:connector-curvature="0"
             id="path960"
             transform="translate(-17.688261,-18.194268)"
             d="m 30.189453,21.195312 v 6.998047 h -2.496094 v 32 h 32 v -2.498047 h 6.996094 v -2 h -6.996094 v -3 h 6.996094 v -2 h -6.996094 v -3 h 6.996094 v -2 h -6.996094 v -3 h 6.996094 v -2 h -6.996094 v -3 h 6.996094 v -2 h -6.996094 v -3 h 6.996094 v -2 h -6.996094 v -2.501953 h -2.503906 v -6.998047 h -2 v 6.998047 h -3 v -6.998047 h -2 v 6.998047 h -3 v -6.998047 h -2 v 6.998047 h -3 v -6.998047 h -2 v 6.998047 h -3 v -6.998047 h -2 v 6.998047 h -3 v -6.998047 z m 1.820313,13.513672 h 2.294922 v 0.927735 l 4e-5,17.111377 v 0.882812 h -2.294922 v -1.804687 -0.492188 h 2.294922 v 1.03711 -16.357381 0.992187 h -2.294922 v -1.804687 z"
             style="fill:#ffffff"
             sodipodi:nodetypes="cccccccccccccccccccccccccccccccccccccccccccccccccccccccccccccccccccc" />
          <rect
             style="fill:#ffffff"
             height="2"
             width="7"
             x="3"
             y="12.5"
             id="rect962" />
        </g>
        <rect
           style="fill:#ffffff"
           id="rect966"
           y="42"
           x="37.5"
           width="2"
           height="7" />
        <rect
           style="fill:#ffffff"
           id="rect968"
           y="42"
           x="32.5"
           width="2"
           height="7" />
        <rect
           style="fill:#ffffff"
           id="rect970"
           y="42"
           x="27.5"
           width="2"
           height="7" />
        <rect
           style="fill:#ffffff"
           id="rect972"
           y="42"
           x="22.5"
           width="2"
           height="7" />
        <rect
           style="fill:#ffffff"
           id="rect974"
           y="42"
           x="17.5"
           width="2"
           height="7" />
        <rect
           style="fill:#ffffff"
           id="rect976"
           y="42"
           x="12.5"
           width="2"
           height="7" />
      </g>
    </g>
    <g
       transform="matrix(0.26458333,0,0,0.26458333,-18.803565,-0.62887993)"
       id="g984">
      <g
         transform="matrix(0.18193184,0,0,0.18193184,341.72828,425.88207)"
         id="g982"
         style="opacity:1" />
    </g>
  </g>
  <g
     inkscape:label="Layer 1 copy copy"
     inkscape:groupmode="layer"
     id="g1028"
     style="display:none;opacity:1"
     transform="translate(-59.839395,-121.80152)"
     sodipodi:insensitive="true">
    <circle
       id="circle988"
       cx="71.532394"
       cy="133.49452"
       style="fill:#c8306f;fill-opacity:1;stroke-width:0.202192"
       r="11.693"
       inkscape:export-xdpi="543.05994"
       inkscape:export-ydpi="543.05994" />
    <path
       style="color:#000000;font-style:normal;font-variant:normal;font-weight:normal;font-stretch:normal;font-size:medium;line-height:normal;font-family:sans-serif;font-variant-ligatures:normal;font-variant-position:normal;font-variant-caps:normal;font-variant-numeric:normal;font-variant-alternates:normal;font-feature-settings:normal;text-indent:0;text-align:start;text-decoration:none;text-decoration-line:none;text-decoration-style:solid;text-decoration-color:#000000;letter-spacing:normal;word-spacing:normal;text-transform:none;writing-mode:lr-tb;direction:ltr;text-orientation:mixed;dominant-baseline:auto;baseline-shift:baseline;text-anchor:start;white-space:normal;shape-padding:0;clip-rule:nonzero;display:inline;overflow:visible;visibility:visible;opacity:1;isolation:auto;mix-blend-mode:normal;color-interpolation:sRGB;color-interpolation-filters:linearRGB;solid-color:#000000;solid-opacity:1;vector-effect:none;fill:#000000;fill-opacity:0.348066;fill-rule:nonzero;stroke:none;stroke-width:0.266107;stroke-linecap:butt;stroke-linejoin:miter;stroke-miterlimit:4;stroke-dasharray:none;stroke-dashoffset:0;stroke-opacity:1;color-rendering:auto;image-rendering:auto;shape-rendering:auto;text-rendering:auto;enable-background:accumulate"
       d="m 77.688081,129.92287 -2.419227,0.44907 -0.20648,6.63523 -6.617844,0.017 -0.52535,2.55539 5.426528,5.45908 a 11.693,11.693 0 0 0 9.744332,-9.8681 z"
       id="path990"
       inkscape:connector-curvature="0"
       inkscape:export-xdpi="543.05994"
       inkscape:export-ydpi="543.05994" />
    <g
       transform="matrix(0.26764114,0,0,0.26458238,64.573502,126.6154)"
       id="g1022"
       style="fill:#ffffff"
       inkscape:export-xdpi="543.05994"
       inkscape:export-ydpi="543.05994">
      <rect
         id="rect992"
         y="17.5"
         x="3"
         width="7"
         height="2"
         style="fill:#ffffff" />
      <rect
         id="rect994"
         y="22.5"
         x="3"
         width="7"
         height="2"
         style="fill:#ffffff" />
      <rect
         id="rect996"
         y="27.5"
         x="3"
         width="7"
         height="2"
         style="fill:#ffffff" />
      <rect
         id="rect998"
         y="32.5"
         x="3"
         width="7"
         height="2"
         style="fill:#ffffff" />
      <rect
         id="rect1000"
         y="37.5"
         x="3"
         width="7"
         height="2"
         style="fill:#ffffff" />
      <g
         id="g1020"
         style="fill:#ffffff">
        <g
           id="g1006"
           style="fill:#ffffff">
          <path
             style="fill:#ffffff"
             d="m 30.189453,21.195312 v 6.998047 h -2.496094 v 32 h 32 v -2.498047 h 6.996094 v -2 h -6.996094 v -3 h 6.996094 v -2 h -6.996094 v -3 h 6.996094 v -2 h -6.996094 v -3 h 6.996094 v -2 h -6.996094 v -3 h 6.996094 v -2 h -6.996094 v -3 h 6.996094 v -2 h -6.996094 v -2.501953 h -2.503906 v -6.998047 h -2 v 6.998047 h -3 v -6.998047 h -2 v 6.998047 h -3 v -6.998047 h -2 v 6.998047 h -3 v -6.998047 h -2 v 6.998047 h -3 v -6.998047 h -2 v 6.998047 h -3 v -6.998047 z m 16.480509,21.283157 v -1.527344 h 3.24414 c 1.915367,0 3.131407,1.497522 3.22461,3.054687 v 0.376953 c -0.09063,1.505273 -1.247918,2.940291 -3.087891,3.035157 v 0.01758 l -0.1875,0.002 c -1.039937,0.0015 -3.003906,0 -3.003906,0 h -0.189453 v -1.527344 m -12.365234,6.837938 v 0.882812 h -2.294922 v -1.804687 -0.492188 h 2.294922 v 1.03711 m 12.365234,-6.837897 v -2.677734 m -12.365234,-6.84175 v 0.992187 h -2.294922 v -1.804687 l -4e-5,-0.492278 h 2.294922 v 0.927735"
             transform="translate(-17.688261,-18.194268)"
             id="path1002"
             inkscape:connector-curvature="0"
             sodipodi:nodetypes="cccccccccccccccccccccccccccccccccccccccccccccccccccccccscccccccccccccccccccccccc" />
          <rect
             id="rect1004"
             y="12.5"
             x="3"
             width="7"
             height="2"
             style="fill:#ffffff" />
        </g>
        <rect
           height="7"
           width="2"
           x="37.5"
           y="42"
           id="rect1008"
           style="fill:#ffffff" />
        <rect
           height="7"
           width="2"
           x="32.5"
           y="42"
           id="rect1010"
           style="fill:#ffffff" />
        <rect
           height="7"
           width="2"
           x="27.5"
           y="42"
           id="rect1012"
           style="fill:#ffffff" />
        <rect
           height="7"
           width="2"
           x="22.5"
           y="42"
           id="rect1014"
           style="fill:#ffffff" />
        <rect
           height="7"
           width="2"
           x="17.5"
           y="42"
           id="rect1016"
           style="fill:#ffffff" />
        <rect
           height="7"
           width="2"
           x="12.5"
           y="42"
           id="rect1018"
           style="fill:#ffffff" />
      </g>
    </g>
    <g
       id="g1026"
       transform="matrix(0.26458333,0,0,0.26458333,-18.803565,-0.62887993)">
      <g
         style="opacity:1"
         id="g1024"
         transform="matrix(0.18193184,0,0,0.18193184,341.72828,425.88207)" />
    </g>
  </g>
  <g
     transform="translate(-59.839395,-121.80152)"
     style="display:none;opacity:1"
     id="g1070"
     inkscape:groupmode="layer"
     inkscape:label="Layer 1 copy copy copy"
     sodipodi:insensitive="true">
    <circle
       inkscape:export-ydpi="543.05994"
       inkscape:export-xdpi="543.05994"
       r="11.693"
       style="fill:#c8306f;fill-opacity:1;stroke-width:0.202192"
       cy="133.49452"
       cx="71.532394"
       id="circle1030" />
    <path
       inkscape:export-ydpi="543.05994"
       inkscape:export-xdpi="543.05994"
       inkscape:connector-curvature="0"
       id="path1032"
       d="m 77.688081,129.92287 -2.419227,0.44907 -0.20648,6.63523 -6.617844,0.017 -0.52535,2.55539 5.426528,5.45908 a 11.693,11.693 0 0 0 9.744332,-9.8681 z"
       style="color:#000000;font-style:normal;font-variant:normal;font-weight:normal;font-stretch:normal;font-size:medium;line-height:normal;font-family:sans-serif;font-variant-ligatures:normal;font-variant-position:normal;font-variant-caps:normal;font-variant-numeric:normal;font-variant-alternates:normal;font-feature-settings:normal;text-indent:0;text-align:start;text-decoration:none;text-decoration-line:none;text-decoration-style:solid;text-decoration-color:#000000;letter-spacing:normal;word-spacing:normal;text-transform:none;writing-mode:lr-tb;direction:ltr;text-orientation:mixed;dominant-baseline:auto;baseline-shift:baseline;text-anchor:start;white-space:normal;shape-padding:0;clip-rule:nonzero;display:inline;overflow:visible;visibility:visible;opacity:1;isolation:auto;mix-blend-mode:normal;color-interpolation:sRGB;color-interpolation-filters:linearRGB;solid-color:#000000;solid-opacity:1;vector-effect:none;fill:#000000;fill-opacity:0.348066;fill-rule:nonzero;stroke:none;stroke-width:0.266107;stroke-linecap:butt;stroke-linejoin:miter;stroke-miterlimit:4;stroke-dasharray:none;stroke-dashoffset:0;stroke-opacity:1;color-rendering:auto;image-rendering:auto;shape-rendering:auto;text-rendering:auto;enable-background:accumulate" />
    <g
       inkscape:export-ydpi="543.05994"
       inkscape:export-xdpi="543.05994"
       style="fill:#ffffff"
       id="g1064"
       transform="matrix(0.26764114,0,0,0.26458238,64.573502,126.6154)">
      <rect
         style="fill:#ffffff"
         height="2"
         width="7"
         x="3"
         y="17.5"
         id="rect1034" />
      <rect
         style="fill:#ffffff"
         height="2"
         width="7"
         x="3"
         y="22.5"
         id="rect1036" />
      <rect
         style="fill:#ffffff"
         height="2"
         width="7"
         x="3"
         y="27.5"
         id="rect1038" />
      <rect
         style="fill:#ffffff"
         height="2"
         width="7"
         x="3"
         y="32.5"
         id="rect1040" />
      <rect
         style="fill:#ffffff"
         height="2"
         width="7"
         x="3"
         y="37.5"
         id="rect1042" />
      <g
         style="fill:#ffffff"
         id="g1062">
        <g
           style="fill:#ffffff"
           id="g1048">
          <path
             inkscape:connector-curvature="0"
             id="path1044"
             transform="translate(-17.688261,-18.194268)"
             d="m 30.189453,21.195312 v 6.998047 h -2.496094 v 32 h 32 v -2.498047 h 6.996094 v -2 h -6.996094 v -3 h 6.996094 v -2 h -6.996094 v -3 h 6.996094 v -2 h -6.996094 v -3 h 6.996094 v -2 h -6.996094 v -3 h 6.996094 v -2 h -6.996094 v -3 h 6.996094 v -2 h -6.996094 v -2.501953 h -2.503906 v -6.998047 h -2 v 6.998047 h -3 v -6.998047 h -2 v 6.998047 h -3 v -6.998047 h -2 v 6.998047 h -3 v -6.998047 h -2 v 6.998047 h -3 v -6.998047 h -2 v 6.998047 h -3 v -6.998047 z m 16.480509,21.283157 v -1.527344 h 3.24414 c 1.915367,0 3.131407,1.497522 3.22461,3.054687 v 0.376953 c -0.09063,1.505273 -1.247918,2.940291 -3.087891,3.035157 v 0.01758 l -0.1875,0.002 c -1.039937,0.0015 -3.003906,0 -3.003906,0 h -0.189453 v -1.527344 h -2.863281 v 0.002 h -4.990235 v 6.835938 h -4.511718 v 0.882812 h -2.294922 v -1.804687 -0.492188 h 2.294922 v 1.03711 h 4.134765 v -6.841797 h 5.367188 v 0.0039 h 2.863281 v -2.677734 m -12.365234,-6.84175 v 0.992187 h -2.294922 v -1.804687 l -4e-5,-0.492278 h 2.294922 v 0.927735"
             style="fill:#ffffff"
             sodipodi:nodetypes="cccccccccccccccccccccccccccccccccccccccccccccccccccccccscccccccccccccccccccccccccccccccc" />
          <rect
             style="fill:#ffffff"
             height="2"
             width="7"
             x="3"
             y="12.5"
             id="rect1046" />
        </g>
        <rect
           style="fill:#ffffff"
           id="rect1050"
           y="42"
           x="37.5"
           width="2"
           height="7" />
        <rect
           style="fill:#ffffff"
           id="rect1052"
           y="42"
           x="32.5"
           width="2"
           height="7" />
        <rect
           style="fill:#ffffff"
           id="rect1054"
           y="42"
           x="27.5"
           width="2"
           height="7" />
        <rect
           style="fill:#ffffff"
           id="rect1056"
           y="42"
           x="22.5"
           width="2"
           height="7" />
        <rect
           style="fill:#ffffff"
           id="rect1058"
           y="42"
           x="17.5"
           width="2"
           height="7" />
        <rect
           style="fill:#ffffff"
           id="rect1060"
           y="42"
           x="12.5"
           width="2"
           height="7" />
      </g>
    </g>
    <g
       transform="matrix(0.26458333,0,0,0.26458333,-18.803565,-0.62887993)"
       id="g1068">
      <g
         transform="matrix(0.18193184,0,0,0.18193184,341.72828,425.88207)"
         id="g1066"
         style="opacity:1" />
    </g>
  </g>
  <g
     inkscape:label="Layer 1 copy copy copy copy"
     inkscape:groupmode="layer"
     id="g1112"
     style="display:none;opacity:1"
     transform="translate(-59.839395,-121.80152)"
     sodipodi:insensitive="true">
    <circle
       id="circle1072"
       cx="71.532394"
       cy="133.49452"
       style="fill:#c8306f;fill-opacity:1;stroke-width:0.202192"
       r="11.693"
       inkscape:export-xdpi="543.05994"
       inkscape:export-ydpi="543.05994" />
    <path
       style="color:#000000;font-style:normal;font-variant:normal;font-weight:normal;font-stretch:normal;font-size:medium;line-height:normal;font-family:sans-serif;font-variant-ligatures:normal;font-variant-position:normal;font-variant-caps:normal;font-variant-numeric:normal;font-variant-alternates:normal;font-feature-settings:normal;text-indent:0;text-align:start;text-decoration:none;text-decoration-line:none;text-decoration-style:solid;text-decoration-color:#000000;letter-spacing:normal;word-spacing:normal;text-transform:none;writing-mode:lr-tb;direction:ltr;text-orientation:mixed;dominant-baseline:auto;baseline-shift:baseline;text-anchor:start;white-space:normal;shape-padding:0;clip-rule:nonzero;display:inline;overflow:visible;visibility:visible;opacity:1;isolation:auto;mix-blend-mode:normal;color-interpolation:sRGB;color-interpolation-filters:linearRGB;solid-color:#000000;solid-opacity:1;vector-effect:none;fill:#000000;fill-opacity:0.348066;fill-rule:nonzero;stroke:none;stroke-width:0.266107;stroke-linecap:butt;stroke-linejoin:miter;stroke-miterlimit:4;stroke-dasharray:none;stroke-dashoffset:0;stroke-opacity:1;color-rendering:auto;image-rendering:auto;shape-rendering:auto;text-rendering:auto;enable-background:accumulate"
       d="m 77.688081,129.92287 -2.419227,0.44907 -0.20648,6.63523 -6.617844,0.017 -0.52535,2.55539 5.426528,5.45908 a 11.693,11.693 0 0 0 9.744332,-9.8681 z"
       id="path1074"
       inkscape:connector-curvature="0"
       inkscape:export-xdpi="543.05994"
       inkscape:export-ydpi="543.05994" />
    <g
       transform="matrix(0.26764114,0,0,0.26458238,64.573502,126.6154)"
       id="g1106"
       style="fill:#ffffff"
       inkscape:export-xdpi="543.05994"
       inkscape:export-ydpi="543.05994">
      <rect
         id="rect1076"
         y="17.5"
         x="3"
         width="7"
         height="2"
         style="fill:#ffffff" />
      <rect
         id="rect1078"
         y="22.5"
         x="3"
         width="7"
         height="2"
         style="fill:#ffffff" />
      <rect
         id="rect1080"
         y="27.5"
         x="3"
         width="7"
         height="2"
         style="fill:#ffffff" />
      <rect
         id="rect1082"
         y="32.5"
         x="3"
         width="7"
         height="2"
         style="fill:#ffffff" />
      <rect
         id="rect1084"
         y="37.5"
         x="3"
         width="7"
         height="2"
         style="fill:#ffffff" />
      <g
         id="g1104"
         style="fill:#ffffff">
        <g
           id="g1090"
           style="fill:#ffffff">
          <path
             style="fill:#ffffff"
             d="m 30.189453,21.195312 v 6.998047 h -2.496094 v 32 h 32 v -2.498047 h 6.996094 v -2 h -6.996094 v -3 h 6.996094 v -2 h -6.996094 v -3 h 6.996094 v -2 h -6.996094 v -3 h 6.996094 v -2 h -6.996094 v -3 h 6.996094 v -2 h -6.996094 v -3 h 6.996094 v -2 h -6.996094 v -2.501953 h -2.503906 v -6.998047 h -2 v 6.998047 h -3 v -6.998047 h -2 v 6.998047 h -3 v -6.998047 h -2 v 6.998047 h -3 v -6.998047 h -2 v 6.998047 h -3 v -6.998047 h -2 v 6.998047 h -3 v -6.998047 z m 1.820313,13.513672 h 2.294922 v 0.927735 h 4.511718 v 6.84375 h 4.982422 c 0.0025,3.3e-5 0.0033,-0.0021 0.0059,-0.002 h 2.865234 v -1.527344 h 3.24414 c 1.915367,0 3.131407,1.497522 3.22461,3.054687 v 0.376953 c -0.09063,1.505273 -1.247918,2.940291 -3.087891,3.035157 v 0.01758 l -0.1875,0.002 c -1.039937,0.0015 -3.003906,0 -3.003906,0 h -0.189453 v -1.527344 h -2.863281 v 0.002 h -4.990235 v 6.835938 h -4.511718 v 0.882812 h -2.294922 v -1.804687 -0.492188 h 2.294922 v 1.03711 h 4.134765 v -6.841797 h 5.367188 v 0.0039 h 2.863281 v -2.677734 h -2.863281 v 0.002 h -5.367188 v -6.84375 h -4.134765 v 0.992187 h -2.294922 v -1.804687 z"
             transform="translate(-17.688261,-18.194268)"
             id="path1086"
             inkscape:connector-curvature="0"
             sodipodi:nodetypes="ccccccccccccccccccccccccccccccccccccccccccccccccccccccccccccccscccccccccccccccccccccccccccccccccc" />
          <rect
             id="rect1088"
             y="12.5"
             x="3"
             width="7"
             height="2"
             style="fill:#ffffff" />
        </g>
        <rect
           height="7"
           width="2"
           x="37.5"
           y="42"
           id="rect1092"
           style="fill:#ffffff" />
        <rect
           height="7"
           width="2"
           x="32.5"
           y="42"
           id="rect1094"
           style="fill:#ffffff" />
        <rect
           height="7"
           width="2"
           x="27.5"
           y="42"
           id="rect1096"
           style="fill:#ffffff" />
        <rect
           height="7"
           width="2"
           x="22.5"
           y="42"
           id="rect1098"
           style="fill:#ffffff" />
        <rect
           height="7"
           width="2"
           x="17.5"
           y="42"
           id="rect1100"
           style="fill:#ffffff" />
        <rect
           height="7"
           width="2"
           x="12.5"
           y="42"
           id="rect1102"
           style="fill:#ffffff" />
      </g>
    </g>
    <g
       id="g1110"
       transform="matrix(0.26458333,0,0,0.26458333,-18.803565,-0.62887993)">
      <g
         style="opacity:1"
         id="g1108"
         transform="matrix(0.18193184,0,0,0.18193184,341.72828,425.88207)" />
    </g>
  </g>
  <g
     transform="translate(-59.839395,-121.80152)"
     style="display:inline;opacity:1"
     id="g1154"
     inkscape:groupmode="layer"
     inkscape:label="Layer 1 copy copy copy copy copy"
     sodipodi:insensitive="true">
    <circle
       inkscape:export-ydpi="543.05994"
       inkscape:export-xdpi="543.05994"
       r="11.693"
       style="fill:#c8306f;fill-opacity:1;stroke-width:0.202192"
       cy="133.49452"
       cx="71.532394"
       id="circle1114" />
    <path
       inkscape:export-ydpi="543.05994"
       inkscape:export-xdpi="543.05994"
       inkscape:connector-curvature="0"
       id="path1116"
       d="m 77.688081,129.92287 -2.419227,0.44907 -0.20648,6.63523 -6.617844,0.017 -0.52535,2.55539 5.426528,5.45908 a 11.693,11.693 0 0 0 9.744332,-9.8681 z"
       style="color:#000000;font-style:normal;font-variant:normal;font-weight:normal;font-stretch:normal;font-size:medium;line-height:normal;font-family:sans-serif;font-variant-ligatures:normal;font-variant-position:normal;font-variant-caps:normal;font-variant-numeric:normal;font-variant-alternates:normal;font-feature-settings:normal;text-indent:0;text-align:start;text-decoration:none;text-decoration-line:none;text-decoration-style:solid;text-decoration-color:#000000;letter-spacing:normal;word-spacing:normal;text-transform:none;writing-mode:lr-tb;direction:ltr;text-orientation:mixed;dominant-baseline:auto;baseline-shift:baseline;text-anchor:start;white-space:normal;shape-padding:0;clip-rule:nonzero;display:inline;overflow:visible;visibility:visible;opacity:1;isolation:auto;mix-blend-mode:normal;color-interpolation:sRGB;color-interpolation-filters:linearRGB;solid-color:#000000;solid-opacity:1;vector-effect:none;fill:#000000;fill-opacity:0.348066;fill-rule:nonzero;stroke:none;stroke-width:0.266107;stroke-linecap:butt;stroke-linejoin:miter;stroke-miterlimit:4;stroke-dasharray:none;stroke-dashoffset:0;stroke-opacity:1;color-rendering:auto;image-rendering:auto;shape-rendering:auto;text-rendering:auto;enable-background:accumulate" />
    <g
       inkscape:export-ydpi="543.05994"
       inkscape:export-xdpi="543.05994"
       style="fill:#ffffff"
       id="g1148"
       transform="matrix(0.26764114,0,0,0.26458238,64.573502,126.6154)">
      <rect
         style="fill:#ffffff"
         height="2"
         width="7"
         x="3"
         y="17.5"
         id="rect1118" />
      <rect
         style="fill:#ffffff"
         height="2"
         width="7"
         x="3"
         y="22.5"
         id="rect1120" />
      <rect
         style="fill:#ffffff"
         height="2"
         width="7"
         x="3"
         y="27.5"
         id="rect1122" />
      <rect
         style="fill:#ffffff"
         height="2"
         width="7"
         x="3"
         y="32.5"
         id="rect1124" />
      <rect
         style="fill:#ffffff"
         height="2"
         width="7"
         x="3"
         y="37.5"
         id="rect1126" />
      <g
         style="fill:#ffffff"
         id="g1146">
        <g
           style="fill:#ffffff"
           id="g1132">
          <path
             inkscape:connector-curvature="0"
             id="path1128"
             transform="translate(-17.688261,-18.194268)"
             d="m 30.189453,21.195312 v 6.998047 h -2.496094 v 32 h 32 v -2.498047 h 6.996094 v -2 h -6.996094 v -3 h 6.996094 v -2 h -6.996094 v -3 h 6.996094 v -2 h -6.996094 v -3 h 6.996094 v -2 h -6.996094 v -3 h 6.996094 v -2 h -6.996094 v -3 h 6.996094 v -2 h -6.996094 v -2.501953 h -2.503906 v -6.998047 h -2 v 6.998047 h -3 v -6.998047 h -2 v 6.998047 h -3 v -6.998047 h -2 v 6.998047 h -3 v -6.998047 h -2 v 6.998047 h -3 v -6.998047 h -2 v 6.998047 h -3 v -6.998047 z m 1.820313,13.513672 h 2.294922 v 0.927735 h 4.511718 v 6.84375 h 4.982422 c 0.0025,3.3e-5 0.0033,-0.0021 0.0059,-0.002 h 2.865234 v -1.527344 h 3.24414 c 1.915367,0 3.131407,1.497522 3.22461,3.054687 l 2.884766,-0.0078 c 0.252049,-4.54e-4 0.252056,0.376386 0,0.376953 l -2.884766,0.0078 c -0.09063,1.505273 -1.247918,2.940291 -3.087891,3.035157 v 0.01758 l -0.1875,0.002 c -1.039937,0.0015 -3.003906,0 -3.003906,0 h -0.189453 v -1.527344 h -2.863281 v 0.002 h -4.990235 v 6.835938 h -4.511718 v 0.882812 h -2.294922 v -1.804687 -0.492188 h 2.294922 v 1.03711 h 4.134765 v -6.841797 h 5.367188 v 0.0039 h 2.863281 v -2.677734 h -2.863281 v 0.002 h -5.367188 v -6.84375 h -4.134765 v 0.992187 h -2.294922 v -1.804687 z"
             style="fill:#ffffff" />
          <rect
             style="fill:#ffffff"
             height="2"
             width="7"
             x="3"
             y="12.5"
             id="rect1130" />
        </g>
        <rect
           style="fill:#ffffff"
           id="rect1134"
           y="42"
           x="37.5"
           width="2"
           height="7" />
        <rect
           style="fill:#ffffff"
           id="rect1136"
           y="42"
           x="32.5"
           width="2"
           height="7" />
        <rect
           style="fill:#ffffff"
           id="rect1138"
           y="42"
           x="27.5"
           width="2"
           height="7" />
        <rect
           style="fill:#ffffff"
           id="rect1140"
           y="42"
           x="22.5"
           width="2"
           height="7" />
        <rect
           style="fill:#ffffff"
           id="rect1142"
           y="42"
           x="17.5"
           width="2"
           height="7" />
        <rect
           style="fill:#ffffff"
           id="rect1144"
           y="42"
           x="12.5"
           width="2"
           height="7" />
      </g>
    </g>
    <g
       transform="matrix(0.26458333,0,0,0.26458333,-18.803565,-0.62887993)"
       id="g1152">
      <g
         transform="matrix(0.18193184,0,0,0.18193184,341.72828,425.88207)"
         id="g1150"
         style="opacity:1" />
    </g>
  </g>
</svg>
